solid Wolf Nipple Chips 1" chassis
facet normal 1.0 1.6666951043697874e-18 0.0
  outer loop
    vertex -99.1667963721942 -45.318206471776236 6.0
    vertex -99.1667963721942 -41.02435531091107 2.8199664825478975e-15
    vertex -99.1667963721942 -41.02435531091107 6.0
  endloop
endfacet
facet normal 1.0 1.6666951043697874e-18 0.0
  outer loop
    vertex -99.1667963721942 -41.02435531091107 2.8199664825478975e-15
    vertex -99.1667963721942 -45.318206471776236 6.0
    vertex -99.1667963721942 -45.31820647177625 8.459899447643692e-15
  endloop
endfacet
facet normal 0.6068872793914606 0.794787915177899 7.381004061722858e-16
  outer loop
    vertex -98.8150719779239 -50.068197806258475 6.0
    vertex -97.11679637219422 -51.36497376665727 2.8199664825478975e-15
    vertex -98.8150719779239 -50.068197806258475 2.8199664825478975e-15
  endloop
endfacet
facet normal 0.6068872793914606 0.794787915177899 7.381004061722858e-16
  outer loop
    vertex -97.11679637219422 -51.36497376665727 2.8199664825478975e-15
    vertex -98.8150719779239 -50.068197806258475 6.0
    vertex -97.11679637219422 -51.36497376665727 6.0
  endloop
endfacet
facet normal 0.3810883562521399 0.9245386226270064 -2.926025826849015e-17
  outer loop
    vertex -97.11679637219422 -51.36497376665727 6.0
    vertex -95.13911254203488 -52.18016121429504 2.8199664825478975e-15
    vertex -97.11679637219422 -51.36497376665727 2.8199664825478975e-15
  endloop
endfacet
facet normal 0.3810883562521399 0.9245386226270064 -2.926025826849015e-17
  outer loop
    vertex -95.13911254203488 -52.18016121429504 2.8199664825478975e-15
    vertex -97.11679637219422 -51.36497376665727 6.0
    vertex -95.13911254203488 -52.18016121429504 6.0
  endloop
endfacet
facet normal 0.129900248918922 0.9915270673717397 -9.824784404136341e-16
  outer loop
    vertex -95.13911254203488 -52.18016121429504 6.0
    vertex -93.0167963721942 -52.45820647177626 2.8199664825478975e-15
    vertex -95.13911254203488 -52.18016121429504 2.8199664825478975e-15
  endloop
endfacet
facet normal 0.129900248918922 0.9915270673717397 -9.824784404136341e-16
  outer loop
    vertex -93.0167963721942 -52.45820647177626 2.8199664825478975e-15
    vertex -95.13911254203488 -52.18016121429504 6.0
    vertex -93.0167963721942 -52.45820647177626 6.0
  endloop
endfacet
facet normal 1.0 1.6666951043697874e-18 0.0
  outer loop
    vertex -99.16679637219421 -49.61205763264141 6.0
    vertex -99.1667963721942 -45.31820647177625 8.459899447643692e-15
    vertex -99.1667963721942 -45.318206471776236 6.0
  endloop
endfacet
facet normal 1.0 1.6666951043697874e-18 0.0
  outer loop
    vertex -99.1667963721942 -45.31820647177625 8.459899447643692e-15
    vertex -99.16679637219421 -49.61205763264141 6.0
    vertex -99.16679637219421 -49.612057632641424 2.8199664825478975e-15
  endloop
endfacet
facet normal 0.7919125209128103 0.6106345545590405 -1.932566616123881e-17
  outer loop
    vertex -98.8150719779239 -50.068197806258475 6.0
    vertex -99.16679637219421 -49.612057632641424 2.8199664825478975e-15
    vertex -99.16679637219421 -49.61205763264141 6.0
  endloop
endfacet
facet normal 0.7919125209128103 0.6106345545590405 -1.932566616123881e-17
  outer loop
    vertex -99.16679637219421 -49.612057632641424 2.8199664825478975e-15
    vertex -98.8150719779239 -50.068197806258475 6.0
    vertex -98.8150719779239 -50.068197806258475 2.8199664825478975e-15
  endloop
endfacet
facet normal -0.12990024891892407 0.9915270673717392 -9.824784404136337e-16
  outer loop
    vertex -93.0167963721942 -52.45820647177626 6.0
    vertex -90.89448020235355 -52.18016121429504 2.8199664825478975e-15
    vertex -93.0167963721942 -52.45820647177626 2.8199664825478975e-15
  endloop
endfacet
facet normal -0.12990024891892407 0.9915270673717392 -9.824784404136337e-16
  outer loop
    vertex -90.89448020235355 -52.18016121429504 2.8199664825478975e-15
    vertex -93.0167963721942 -52.45820647177626 6.0
    vertex -90.89448020235355 -52.18016121429504 6.0
  endloop
endfacet
facet normal -0.3810883562521354 0.9245386226270084 -2.9260258268489346e-17
  outer loop
    vertex -90.89448020235355 -52.18016121429504 6.0
    vertex -88.9167963721942 -51.36497376665727 2.8199664825478975e-15
    vertex -90.89448020235355 -52.18016121429504 2.8199664825478975e-15
  endloop
endfacet
facet normal -0.3810883562521354 0.9245386226270084 -2.9260258268489346e-17
  outer loop
    vertex -88.9167963721942 -51.36497376665727 2.8199664825478975e-15
    vertex -90.89448020235355 -52.18016121429504 6.0
    vertex -88.9167963721942 -51.36497376665727 6.0
  endloop
endfacet
facet normal -0.6068872793914601 0.7947879151778994 7.381004061722858e-16
  outer loop
    vertex -88.9167963721942 -51.36497376665727 6.0
    vertex -87.21852076646451 -50.06819780625845 2.8199664825478975e-15
    vertex -88.9167963721942 -51.36497376665727 2.8199664825478975e-15
  endloop
endfacet
facet normal -0.6068872793914601 0.7947879151778994 7.381004061722858e-16
  outer loop
    vertex -87.21852076646451 -50.06819780625845 2.8199664825478975e-15
    vertex -88.9167963721942 -51.36497376665727 6.0
    vertex -87.21852076646451 -50.06819780625847 6.0
  endloop
endfacet
facet normal -0.7919125209128101 0.6106345545590411 -1.9325666161238812e-17
  outer loop
    vertex -86.8667963721942 -49.61205763264141 2.8199664825478975e-15
    vertex -87.21852076646451 -50.06819780625847 6.0
    vertex -86.8667963721942 -49.61205763264141 6.0
  endloop
endfacet
facet normal -0.7919125209128101 0.6106345545590411 -1.9325666161238812e-17
  outer loop
    vertex -87.21852076646451 -50.06819780625847 6.0
    vertex -86.8667963721942 -49.61205763264141 2.8199664825478975e-15
    vertex -87.21852076646451 -50.06819780625845 2.8199664825478975e-15
  endloop
endfacet
facet normal 0.7933533402912345 -0.6087614290087215 1.6446650936589815e-17
  outer loop
    vertex -85.01679637219421 -50.09447312639893 6.0
    vertex -85.94572856032875 -51.30508112362475 2.8199664825478975e-15
    vertex -85.01679637219421 -50.094473126398924 1.127986593019159e-14
  endloop
endfacet
facet normal 0.7933533402912345 -0.6087614290087215 1.6446650936589815e-17
  outer loop
    vertex -85.94572856032875 -51.30508112362475 2.8199664825478975e-15
    vertex -85.01679637219421 -50.09447312639893 6.0
    vertex -85.94572856032875 -51.305081123624745 6.0
  endloop
endfacet
facet normal 0.6087614290087235 -0.793353340291233 7.706992519227781e-16
  outer loop
    vertex -85.94572856032875 -51.305081123624745 6.0
    vertex -88.01679637219421 -52.894267349603666 1.127986593019159e-14
    vertex -85.94572856032875 -51.30508112362475 2.8199664825478975e-15
  endloop
endfacet
facet normal 0.6087614290087235 -0.793353340291233 7.706992519227781e-16
  outer loop
    vertex -88.01679637219421 -52.894267349603666 1.127986593019159e-14
    vertex -85.94572856032875 -51.305081123624745 6.0
    vertex -88.01679637219421 -52.89426734960365 6.0
  endloop
endfacet
facet normal 0.38268343236508995 -0.9238795325112866 8.977096600200389e-16
  outer loop
    vertex -88.01679637219421 -52.894267349603666 1.127986593019159e-14
    vertex -90.42860592116901 -53.89327157464995 6.0
    vertex -90.42860592116901 -53.89327157464996 2.8199664825478975e-15
  endloop
endfacet
facet normal 0.38268343236508995 -0.9238795325112866 8.977096600200389e-16
  outer loop
    vertex -90.42860592116901 -53.89327157464995 6.0
    vertex -88.01679637219421 -52.894267349603666 1.127986593019159e-14
    vertex -88.01679637219421 -52.89426734960365 6.0
  endloop
endfacet
facet normal 0.13052619222005152 -0.9914448613738105 9.631342986505632e-16
  outer loop
    vertex -90.42860592116901 -53.89327157464995 6.0
    vertex -93.01679637219421 -54.23401331175928 2.8199664825478975e-15
    vertex -90.42860592116901 -53.89327157464996 2.8199664825478975e-15
  endloop
endfacet
facet normal 0.13052619222005152 -0.9914448613738105 9.631342986505632e-16
  outer loop
    vertex -93.01679637219421 -54.23401331175928 2.8199664825478975e-15
    vertex -90.42860592116901 -53.89327157464995 6.0
    vertex -93.01679637219421 -54.23401331175928 6.0
  endloop
endfacet
facet normal -0.3826834323650874 -0.9238795325112877 8.977096600200406e-16
  outer loop
    vertex -95.6049868232194 -53.89327157464995 6.0
    vertex -98.01679637219421 -52.894267349603666 1.127986593019159e-14
    vertex -95.6049868232194 -53.89327157464996 2.8199664825478975e-15
  endloop
endfacet
facet normal -0.3826834323650874 -0.9238795325112877 8.977096600200406e-16
  outer loop
    vertex -98.01679637219421 -52.894267349603666 1.127986593019159e-14
    vertex -95.6049868232194 -53.89327157464995 6.0
    vertex -98.01679637219421 -52.89426734960365 6.0
  endloop
endfacet
facet normal -0.6087614290087199 -0.7933533402912359 7.706992519227813e-16
  outer loop
    vertex -98.01679637219421 -52.894267349603666 1.127986593019159e-14
    vertex -100.08786418405968 -51.305081123624745 6.0
    vertex -100.08786418405968 -51.30508112362475 2.8199664825478975e-15
  endloop
endfacet
facet normal -0.6087614290087199 -0.7933533402912359 7.706992519227813e-16
  outer loop
    vertex -100.08786418405968 -51.305081123624745 6.0
    vertex -98.01679637219421 -52.894267349603666 1.127986593019159e-14
    vertex -98.01679637219421 -52.89426734960365 6.0
  endloop
endfacet
facet normal -0.7933533402912394 -0.6087614290087153 2.2612627243267395e-17
  outer loop
    vertex -100.08786418405968 -51.30508112362475 2.8199664825478975e-15
    vertex -101.01679637219421 -50.09447312639893 6.0
    vertex -101.01679637219421 -50.09447312639893 1.127986593019159e-14
  endloop
endfacet
facet normal -0.7933533402912394 -0.6087614290087153 2.2612627243267395e-17
  outer loop
    vertex -101.01679637219421 -50.09447312639893 6.0
    vertex -100.08786418405968 -51.30508112362475 2.8199664825478975e-15
    vertex -100.08786418405968 -51.305081123624745 6.0
  endloop
endfacet
facet normal -0.9914448613738077 1.0753224948096994e-16 0.13052619222007322
  outer loop
    vertex -103.05087054590514 -44.02435531091106 2.741180954897483
    vertex -103.0167963721942 -41.02435531091106 3.0
    vertex -103.05087054590514 -41.02435531091106 2.74118095489748
  endloop
endfacet
facet normal -0.9914448613738077 1.0753224948096994e-16 0.13052619222007322
  outer loop
    vertex -103.0167963721942 -41.02435531091106 3.0
    vertex -103.05087054590514 -44.02435531091106 2.741180954897483
    vertex -103.0167963721942 -44.02435531091106 3.000000000000003
  endloop
endfacet
facet normal -0.9914448613738077 -1.3796590499446722e-16 -0.1305261922200725
  outer loop
    vertex -103.0167963721942 -44.02435531091106 3.000000000000003
    vertex -103.05087054590514 -41.02435531091106 3.258819045102523
    vertex -103.0167963721942 -41.02435531091106 3.0
  endloop
endfacet
facet normal -0.9914448613738077 -1.3796590499446722e-16 -0.1305261922200725
  outer loop
    vertex -103.05087054590514 -41.02435531091106 3.258819045102523
    vertex -103.0167963721942 -44.02435531091106 3.000000000000003
    vertex -103.05087054590514 -44.02435531091106 3.2588190451025287
  endloop
endfacet
facet normal -0.9238795325112905 1.7892044736732425e-16 0.38268343236508123
  outer loop
    vertex -103.15077096840976 -44.02435531091106 2.500000000000001
    vertex -103.05087054590514 -41.02435531091106 2.74118095489748
    vertex -103.15077096840976 -41.02435531091106 2.500000000000001
  endloop
endfacet
facet normal -0.9238795325112905 1.7892044736732425e-16 0.38268343236508123
  outer loop
    vertex -103.05087054590514 -41.02435531091106 2.74118095489748
    vertex -103.15077096840976 -44.02435531091106 2.500000000000001
    vertex -103.05087054590514 -44.02435531091106 2.741180954897483
  endloop
endfacet
facet normal -0.6087614290087571 -6.537308627469217e-16 -0.7933533402912073
  outer loop
    vertex -103.5167963721942 -44.02435531091107 3.866025403784445
    vertex -103.30968959100767 -41.02435531091106 3.7071067811865492
    vertex -103.30968959100767 -44.02435531091106 3.7071067811865492
  endloop
endfacet
facet normal -0.6087614290087571 -6.537308627469217e-16 -0.7933533402912073
  outer loop
    vertex -103.30968959100767 -41.02435531091106 3.7071067811865492
    vertex -103.5167963721942 -44.02435531091107 3.866025403784445
    vertex -103.5167963721942 -41.02435531091106 3.8660254037844393
  endloop
endfacet
facet normal -1.0 0.0 0.0
  outer loop
    vertex -107.0167963721942 -41.02435531091107 2.8199664825478975e-15
    vertex -107.0167963721942 -44.02435531091106 6.000000000000006
    vertex -107.0167963721942 -41.024355310911055 6.0
  endloop
endfacet
facet normal -1.0 0.0 0.0
  outer loop
    vertex -107.0167963721942 -44.02435531091106 6.000000000000006
    vertex -107.0167963721942 -41.02435531091107 2.8199664825478975e-15
    vertex -107.0167963721942 -44.02435531091106 2.8199664825478975e-15
  endloop
endfacet
facet normal -0.38268343236505525 -1.4090366388306477e-15 -0.9238795325113013
  outer loop
    vertex -103.75797732709171 -44.02435531091106 3.965925826289078
    vertex -103.5167963721942 -41.02435531091106 3.8660254037844393
    vertex -103.5167963721942 -44.02435531091107 3.866025403784445
  endloop
endfacet
facet normal -0.38268343236505525 -1.4090366388306477e-15 -0.9238795325113013
  outer loop
    vertex -103.5167963721942 -41.02435531091106 3.8660254037844393
    vertex -103.75797732709171 -44.02435531091106 3.965925826289078
    vertex -103.75797732709171 -41.02435531091106 3.965925826289072
  endloop
endfacet
facet normal 0.9914448613738077 -1.3796590499445322e-16 -0.1305261922200725
  outer loop
    vertex -104.98272219848329 -44.02435531091106 3.2588190451025287
    vertex -105.01679637219422 -41.024355310911055 3.0
    vertex -104.98272219848329 -41.024355310911055 3.258819045102523
  endloop
endfacet
facet normal 0.9914448613738077 -1.3796590499445322e-16 -0.1305261922200725
  outer loop
    vertex -105.01679637219422 -41.024355310911055 3.0
    vertex -104.98272219848329 -44.02435531091106 3.2588190451025287
    vertex -105.01679637219422 -44.02435531091106 3.000000000000003
  endloop
endfacet
facet normal 0.9914448613738077 4.5707128515155745e-17 0.13052619222007253
  outer loop
    vertex -105.01679637219422 -44.02435531091106 3.000000000000003
    vertex -104.98272219848329 -41.024355310911055 2.74118095489748
    vertex -105.01679637219422 -41.024355310911055 3.0
  endloop
endfacet
facet normal 0.9914448613738077 4.5707128515155745e-17 0.13052619222007253
  outer loop
    vertex -104.98272219848329 -41.024355310911055 2.74118095489748
    vertex -105.01679637219422 -44.02435531091106 3.000000000000003
    vertex -104.98272219848329 -44.02435531091106 2.74118095489748
  endloop
endfacet
facet normal 0.9238795325112897 3.4347977272718755e-19 0.38268343236508306
  outer loop
    vertex -104.98272219848329 -44.02435531091106 2.74118095489748
    vertex -104.88282177597866 -41.024355310911055 2.500000000000001
    vertex -104.98272219848329 -41.024355310911055 2.74118095489748
  endloop
endfacet
facet normal 0.9238795325112897 3.4347977272718755e-19 0.38268343236508306
  outer loop
    vertex -104.88282177597866 -41.024355310911055 2.500000000000001
    vertex -104.98272219848329 -44.02435531091106 2.74118095489748
    vertex -104.88282177597866 -44.02435531091106 2.500000000000001
  endloop
endfacet
facet normal 0.793353340291207 -1.5414940766751388e-18 0.6087614290087575
  outer loop
    vertex -104.88282177597866 -44.02435531091106 2.500000000000001
    vertex -104.72390315338075 -41.024355310911055 2.292893218813454
    vertex -104.88282177597866 -41.024355310911055 2.500000000000001
  endloop
endfacet
facet normal 0.793353340291207 -1.5414940766751388e-18 0.6087614290087575
  outer loop
    vertex -104.72390315338075 -41.024355310911055 2.292893218813454
    vertex -104.88282177597866 -44.02435531091106 2.500000000000001
    vertex -104.72390315338075 -44.02435531091106 2.292893218813454
  endloop
endfacet
facet normal 0.6087614290087562 0.0 0.7933533402912081
  outer loop
    vertex -104.72390315338075 -41.024355310911055 2.292893218813454
    vertex -104.51679637219422 -44.02435531091106 2.133974596215561
    vertex -104.51679637219422 -41.024355310911055 2.133974596215561
  endloop
endfacet
facet normal 0.6087614290087562 0.0 0.7933533402912081
  outer loop
    vertex -104.51679637219422 -44.02435531091106 2.133974596215561
    vertex -104.72390315338075 -41.024355310911055 2.292893218813454
    vertex -104.72390315338075 -44.02435531091106 2.292893218813454
  endloop
endfacet
facet normal 0.38268343236507874 1.232595164407831e-31 0.9238795325112914
  outer loop
    vertex -104.51679637219422 -41.024355310911055 2.133974596215561
    vertex -104.27561541729673 -44.02435531091106 2.034074173710931
    vertex -104.27561541729673 -41.024355310911055 2.0340741737109336
  endloop
endfacet
facet normal 0.38268343236507874 1.232595164407831e-31 0.9238795325112914
  outer loop
    vertex -104.27561541729673 -44.02435531091106 2.034074173710931
    vertex -104.51679637219422 -41.024355310911055 2.133974596215561
    vertex -104.51679637219422 -44.02435531091106 2.133974596215561
  endloop
endfacet
facet normal 0.13052619222004516 3.4963942809805153e-16 0.9914448613738114
  outer loop
    vertex -104.27561541729673 -41.024355310911055 2.0340741737109336
    vertex -104.0167963721942 -44.02435531091106 2.0000000000000018
    vertex -104.0167963721942 -41.024355310911055 1.9999999999999991
  endloop
endfacet
facet normal 0.13052619222004516 3.4963942809805153e-16 0.9914448613738114
  outer loop
    vertex -104.0167963721942 -44.02435531091106 2.0000000000000018
    vertex -104.27561541729673 -41.024355310911055 2.0340741737109336
    vertex -104.27561541729673 -44.02435531091106 2.034074173710931
  endloop
endfacet
facet normal -0.13052619222006753 3.4963942809805044e-16 0.9914448613738084
  outer loop
    vertex -104.0167963721942 -41.024355310911055 1.9999999999999991
    vertex -103.75797732709171 -44.02435531091106 2.034074173710931
    vertex -103.75797732709171 -41.02435531091106 2.0340741737109336
  endloop
endfacet
facet normal -0.13052619222006753 3.4963942809805044e-16 0.9914448613738084
  outer loop
    vertex -103.75797732709171 -44.02435531091106 2.034074173710931
    vertex -104.0167963721942 -41.024355310911055 1.9999999999999991
    vertex -104.0167963721942 -44.02435531091106 2.0000000000000018
  endloop
endfacet
facet normal -0.3826834323650482 1.4871160535224597e-18 0.9238795325113042
  outer loop
    vertex -103.75797732709171 -41.02435531091106 2.0340741737109336
    vertex -103.5167963721942 -44.02435531091106 2.133974596215561
    vertex -103.5167963721942 -41.02435531091106 2.133974596215561
  endloop
endfacet
facet normal -0.3826834323650482 1.4871160535224597e-18 0.9238795325113042
  outer loop
    vertex -103.5167963721942 -44.02435531091106 2.133974596215561
    vertex -103.75797732709171 -41.02435531091106 2.0340741737109336
    vertex -103.75797732709171 -44.02435531091106 2.034074173710931
  endloop
endfacet
facet normal -0.6087614290087562 9.860761315262648e-32 0.7933533402912081
  outer loop
    vertex -103.5167963721942 -41.02435531091106 2.133974596215561
    vertex -103.30968959100767 -44.02435531091106 2.292893218813454
    vertex -103.30968959100767 -41.02435531091106 2.292893218813454
  endloop
endfacet
facet normal -0.6087614290087562 9.860761315262648e-32 0.7933533402912081
  outer loop
    vertex -103.30968959100767 -44.02435531091106 2.292893218813454
    vertex -103.5167963721942 -41.02435531091106 2.133974596215561
    vertex -103.5167963721942 -44.02435531091106 2.133974596215561
  endloop
endfacet
facet normal -0.793353340291207 1.541494076674991e-18 0.6087614290087574
  outer loop
    vertex -103.30968959100767 -44.02435531091106 2.292893218813454
    vertex -103.15077096840976 -41.02435531091106 2.500000000000001
    vertex -103.30968959100767 -41.02435531091106 2.292893218813454
  endloop
endfacet
facet normal -0.793353340291207 1.541494076674991e-18 0.6087614290087574
  outer loop
    vertex -103.15077096840976 -41.02435531091106 2.500000000000001
    vertex -103.30968959100767 -44.02435531091106 2.292893218813454
    vertex -103.15077096840976 -44.02435531091106 2.500000000000001
  endloop
endfacet
facet normal -0.9238795325112897 -5.85923725086791e-16 -0.38268343236508257
  outer loop
    vertex -103.05087054590514 -44.02435531091106 3.2588190451025287
    vertex -103.15077096840976 -41.02435531091106 3.499999999999999
    vertex -103.05087054590514 -41.02435531091106 3.258819045102523
  endloop
endfacet
facet normal -0.9238795325112897 -5.85923725086791e-16 -0.38268343236508257
  outer loop
    vertex -103.15077096840976 -41.02435531091106 3.499999999999999
    vertex -103.05087054590514 -44.02435531091106 3.2588190451025287
    vertex -103.15077096840976 -44.02435531091106 3.500000000000005
  endloop
endfacet
facet normal -0.7933533402912064 -4.991542628857477e-16 -0.6087614290087581
  outer loop
    vertex -103.15077096840976 -44.02435531091106 3.500000000000005
    vertex -103.30968959100767 -41.02435531091106 3.7071067811865492
    vertex -103.15077096840976 -41.02435531091106 3.499999999999999
  endloop
endfacet
facet normal -0.7933533402912064 -4.991542628857477e-16 -0.6087614290087581
  outer loop
    vertex -103.30968959100767 -41.02435531091106 3.7071067811865492
    vertex -103.15077096840976 -44.02435531091106 3.500000000000005
    vertex -103.30968959100767 -44.02435531091106 3.7071067811865492
  endloop
endfacet
facet normal -0.1305261922200715 -1.5141409944080912e-15 -0.9914448613738079
  outer loop
    vertex -104.0167963721942 -44.02435531091106 4.00000000000001
    vertex -103.75797732709171 -41.02435531091106 3.965925826289072
    vertex -103.75797732709171 -44.02435531091106 3.965925826289078
  endloop
endfacet
facet normal -0.1305261922200715 -1.5141409944080912e-15 -0.9914448613738079
  outer loop
    vertex -103.75797732709171 -41.02435531091106 3.965925826289072
    vertex -104.0167963721942 -44.02435531091106 4.00000000000001
    vertex -104.0167963721942 -41.024355310911055 4.0000000000000036
  endloop
endfacet
facet normal 0.13052619222004913 -1.5141409944080954e-15 -0.9914448613738107
  outer loop
    vertex -104.27561541729673 -44.02435531091106 3.965925826289078
    vertex -104.0167963721942 -41.024355310911055 4.0000000000000036
    vertex -104.0167963721942 -44.02435531091106 4.00000000000001
  endloop
endfacet
facet normal 0.13052619222004913 -1.5141409944080954e-15 -0.9914448613738107
  outer loop
    vertex -104.0167963721942 -41.024355310911055 4.0000000000000036
    vertex -104.27561541729673 -44.02435531091106 3.965925826289078
    vertex -104.27561541729673 -41.024355310911055 3.965925826289072
  endloop
endfacet
facet normal 0.3826834323650857 -1.409036638830625e-15 -0.9238795325112884
  outer loop
    vertex -104.51679637219422 -44.02435531091106 3.866025403784445
    vertex -104.27561541729673 -41.024355310911055 3.965925826289072
    vertex -104.27561541729673 -44.02435531091106 3.965925826289078
  endloop
endfacet
facet normal 0.3826834323650857 -1.409036638830625e-15 -0.9238795325112884
  outer loop
    vertex -104.27561541729673 -41.024355310911055 3.965925826289072
    vertex -104.51679637219422 -44.02435531091106 3.866025403784445
    vertex -104.51679637219422 -41.024355310911055 3.8660254037844393
  endloop
endfacet
facet normal 0.608761429008757 -6.537308627469217e-16 -0.7933533402912073
  outer loop
    vertex -104.72390315338075 -44.02435531091106 3.7071067811865492
    vertex -104.51679637219422 -41.024355310911055 3.8660254037844393
    vertex -104.51679637219422 -44.02435531091106 3.866025403784445
  endloop
endfacet
facet normal 0.608761429008757 -6.537308627469217e-16 -0.7933533402912073
  outer loop
    vertex -104.51679637219422 -41.024355310911055 3.8660254037844393
    vertex -104.72390315338075 -44.02435531091106 3.7071067811865492
    vertex -104.72390315338075 -41.024355310911055 3.7071067811865492
  endloop
endfacet
facet normal 0.7933533402912064 -4.991542628857365e-16 -0.6087614290087581
  outer loop
    vertex -104.72390315338075 -44.02435531091106 3.7071067811865492
    vertex -104.88282177597866 -41.024355310911055 3.499999999999999
    vertex -104.72390315338075 -41.024355310911055 3.7071067811865492
  endloop
endfacet
facet normal 0.7933533402912064 -4.991542628857365e-16 -0.6087614290087581
  outer loop
    vertex -104.88282177597866 -41.024355310911055 3.499999999999999
    vertex -104.72390315338075 -44.02435531091106 3.7071067811865492
    vertex -104.88282177597866 -44.02435531091106 3.500000000000005
  endloop
endfacet
facet normal 0.9238795325112897 -5.859237250867777e-16 -0.38268343236508257
  outer loop
    vertex -104.88282177597866 -44.02435531091106 3.500000000000005
    vertex -104.98272219848329 -41.024355310911055 3.258819045102523
    vertex -104.88282177597866 -41.024355310911055 3.499999999999999
  endloop
endfacet
facet normal 0.9238795325112897 -5.859237250867777e-16 -0.38268343236508257
  outer loop
    vertex -104.98272219848329 -41.024355310911055 3.258819045102523
    vertex -104.88282177597866 -44.02435531091106 3.500000000000005
    vertex -104.98272219848329 -44.02435531091106 3.2588190451025287
  endloop
endfacet
facet normal -0.13052619222005218 -0.9914448613738103 9.63134298650563e-16
  outer loop
    vertex -93.01679637219421 -54.23401331175928 6.0
    vertex -95.6049868232194 -53.89327157464996 2.8199664825478975e-15
    vertex -93.01679637219421 -54.23401331175928 2.8199664825478975e-15
  endloop
endfacet
facet normal -0.13052619222005218 -0.9914448613738103 9.63134298650563e-16
  outer loop
    vertex -95.6049868232194 -53.89327157464996 2.8199664825478975e-15
    vertex -93.01679637219421 -54.23401331175928 6.0
    vertex -95.6049868232194 -53.89327157464995 6.0
  endloop
endfacet
facet normal 0.382683432365094 -8.975539363061393e-19 0.9238795325112852
  outer loop
    vertex -82.5167963721942 -41.02435531091107 2.133974596215561
    vertex -82.27561541729672 -44.024355310911076 2.034074173710931
    vertex -82.27561541729672 -41.02435531091107 2.0340741737109336
  endloop
endfacet
facet normal 0.382683432365094 -8.975539363061393e-19 0.9238795325112852
  outer loop
    vertex -82.27561541729672 -44.024355310911076 2.034074173710931
    vertex -82.5167963721942 -41.02435531091107 2.133974596215561
    vertex -82.5167963721942 -44.024355310911076 2.133974596215561
  endloop
endfacet
facet normal 0.6087614290087153 -6.505105003545116e-16 -0.7933533402912393
  outer loop
    vertex -82.72390315338075 -44.024355310911076 3.7071067811865492
    vertex -82.5167963721942 -41.02435531091107 3.8660254037844393
    vertex -82.5167963721942 -44.024355310911076 3.866025403784445
  endloop
endfacet
facet normal 0.6087614290087153 -6.505105003545116e-16 -0.7933533402912393
  outer loop
    vertex -82.5167963721942 -41.02435531091107 3.8660254037844393
    vertex -82.72390315338075 -44.024355310911076 3.7071067811865492
    vertex -82.72390315338075 -41.02435531091107 3.7071067811865492
  endloop
endfacet
facet normal -0.9914448613738134 -1.3796590499441876e-16 -0.13052619222003006
  outer loop
    vertex -81.0167963721942 -44.024355310911076 3.000000000000003
    vertex -81.05087054590513 -41.02435531091107 3.258819045102523
    vertex -81.0167963721942 -41.02435531091107 3.0
  endloop
endfacet
facet normal -0.9914448613738134 -1.3796590499441876e-16 -0.13052619222003006
  outer loop
    vertex -81.05087054590513 -41.02435531091107 3.258819045102523
    vertex -81.0167963721942 -44.024355310911076 3.000000000000003
    vertex -81.05087054590513 -44.024355310911076 3.2588190451025287
  endloop
endfacet
facet normal -1.0 3.4000580129145424e-16 0.0
  outer loop
    vertex -86.8667963721942 -41.02435531091107 2.8199664825478975e-15
    vertex -86.8667963721942 -49.61205763264141 6.0
    vertex -86.8667963721942 -41.02435531091106 6.0
  endloop
endfacet
facet normal -1.0 3.4000580129145424e-16 0.0
  outer loop
    vertex -86.8667963721942 -49.61205763264141 6.0
    vertex -86.8667963721942 -41.02435531091107 2.8199664825478975e-15
    vertex -86.8667963721942 -49.61205763264141 2.8199664825478975e-15
  endloop
endfacet
facet normal 0.38268343236510094 -1.4099341927669165e-15 -0.9238795325112822
  outer loop
    vertex -82.5167963721942 -44.024355310911076 3.866025403784445
    vertex -82.27561541729672 -41.02435531091107 3.965925826289072
    vertex -82.27561541729672 -44.024355310911076 3.965925826289078
  endloop
endfacet
facet normal 0.38268343236510094 -1.4099341927669165e-15 -0.9238795325112822
  outer loop
    vertex -82.27561541729672 -41.02435531091107 3.965925826289072
    vertex -82.5167963721942 -44.024355310911076 3.866025403784445
    vertex -82.5167963721942 -41.02435531091107 3.8660254037844393
  endloop
endfacet
facet normal 0.13052619222005077 3.496394280980518e-16 0.9914448613738105
  outer loop
    vertex -82.27561541729672 -41.02435531091107 2.0340741737109336
    vertex -82.0167963721942 -44.024355310911076 2.0000000000000018
    vertex -82.0167963721942 -41.02435531091107 1.9999999999999991
  endloop
endfacet
facet normal 0.13052619222005077 3.496394280980518e-16 0.9914448613738105
  outer loop
    vertex -82.0167963721942 -44.024355310911076 2.0000000000000018
    vertex -82.27561541729672 -41.02435531091107 2.0340741737109336
    vertex -82.27561541729672 -44.024355310911076 2.034074173710931
  endloop
endfacet
facet normal 0.9914448613738134 4.5650483270207425e-17 0.13052619222003006
  outer loop
    vertex -83.01679637219421 -44.024355310911076 3.000000000000003
    vertex -82.98272219848327 -41.02435531091107 2.74118095489748
    vertex -83.01679637219421 -41.02435531091107 3.0
  endloop
endfacet
facet normal 0.9914448613738134 4.5650483270207425e-17 0.13052619222003006
  outer loop
    vertex -82.98272219848327 -41.02435531091107 2.74118095489748
    vertex -83.01679637219421 -44.024355310911076 3.000000000000003
    vertex -82.98272219848327 -44.024355310911076 2.74118095489748
  endloop
endfacet
facet normal -0.7933533402912278 -2.724324083504983e-18 0.6087614290087303
  outer loop
    vertex -81.30968959100765 -44.024355310911076 2.292893218813454
    vertex -81.15077096840976 -41.02435531091107 2.500000000000001
    vertex -81.30968959100765 -41.02435531091107 2.292893218813454
  endloop
endfacet
facet normal -0.7933533402912278 -2.724324083504983e-18 0.6087614290087303
  outer loop
    vertex -81.15077096840976 -41.02435531091107 2.500000000000001
    vertex -81.30968959100765 -44.024355310911076 2.292893218813454
    vertex -81.15077096840976 -44.024355310911076 2.500000000000001
  endloop
endfacet
facet normal -0.7933533402912275 -5.015199228993989e-16 -0.608761429008731
  outer loop
    vertex -81.15077096840976 -44.024355310911076 3.500000000000005
    vertex -81.30968959100765 -41.02435531091107 3.7071067811865492
    vertex -81.15077096840976 -41.02435531091107 3.499999999999999
  endloop
endfacet
facet normal -0.7933533402912275 -5.015199228993989e-16 -0.608761429008731
  outer loop
    vertex -81.30968959100765 -41.02435531091107 3.7071067811865492
    vertex -81.15077096840976 -44.024355310911076 3.500000000000005
    vertex -81.30968959100765 -44.024355310911076 3.7071067811865492
  endloop
endfacet
facet normal 0.9914448613738134 -1.3796590499441186e-16 -0.13052619222003006
  outer loop
    vertex -82.98272219848327 -44.024355310911076 3.2588190451025287
    vertex -83.01679637219421 -41.02435531091107 3.0
    vertex -82.98272219848327 -41.02435531091107 3.258819045102523
  endloop
endfacet
facet normal 0.9914448613738134 -1.3796590499441186e-16 -0.13052619222003006
  outer loop
    vertex -83.01679637219421 -41.02435531091107 3.0
    vertex -82.98272219848327 -44.024355310911076 3.2588190451025287
    vertex -83.01679637219421 -44.024355310911076 3.000000000000003
  endloop
endfacet
facet normal 0.9238795325112744 -5.844366090333243e-16 -0.3826834323651195
  outer loop
    vertex -82.88282177597864 -44.024355310911076 3.500000000000005
    vertex -82.98272219848327 -41.02435531091107 3.258819045102523
    vertex -82.88282177597864 -41.02435531091107 3.499999999999999
  endloop
endfacet
facet normal 0.9238795325112744 -5.844366090333243e-16 -0.3826834323651195
  outer loop
    vertex -82.98272219848327 -41.02435531091107 3.258819045102523
    vertex -82.88282177597864 -44.024355310911076 3.500000000000005
    vertex -82.98272219848327 -44.024355310911076 3.2588190451025287
  endloop
endfacet
facet normal 0.6087614290087144 -1.541494076669247e-18 0.79335334029124
  outer loop
    vertex -82.72390315338075 -41.02435531091107 2.292893218813454
    vertex -82.5167963721942 -44.024355310911076 2.133974596215561
    vertex -82.5167963721942 -41.02435531091107 2.133974596215561
  endloop
endfacet
facet normal 0.6087614290087144 -1.541494076669247e-18 0.79335334029124
  outer loop
    vertex -82.5167963721942 -44.024355310911076 2.133974596215561
    vertex -82.72390315338075 -41.02435531091107 2.292893218813454
    vertex -82.72390315338075 -44.024355310911076 2.292893218813454
  endloop
endfacet
facet normal -0.13052619222005635 3.4963942809805227e-16 0.9914448613738098
  outer loop
    vertex -82.0167963721942 -41.02435531091107 1.9999999999999991
    vertex -81.75797732709168 -44.024355310911076 2.034074173710931
    vertex -81.75797732709168 -41.02435531091107 2.0340741737109336
  endloop
endfacet
facet normal -0.13052619222005635 3.4963942809805227e-16 0.9914448613738098
  outer loop
    vertex -81.75797732709168 -44.024355310911076 2.034074173710931
    vertex -82.0167963721942 -41.02435531091107 1.9999999999999991
    vertex -82.0167963721942 -44.024355310911076 2.0000000000000018
  endloop
endfacet
facet normal 0.7933533402912275 -5.015199228993932e-16 -0.608761429008731
  outer loop
    vertex -82.72390315338075 -44.024355310911076 3.7071067811865492
    vertex -82.88282177597864 -41.02435531091107 3.499999999999999
    vertex -82.72390315338075 -41.02435531091107 3.7071067811865492
  endloop
endfacet
facet normal 0.7933533402912275 -5.015199228993932e-16 -0.608761429008731
  outer loop
    vertex -82.88282177597864 -41.02435531091107 3.499999999999999
    vertex -82.72390315338075 -44.024355310911076 3.7071067811865492
    vertex -82.88282177597864 -44.024355310911076 3.500000000000005
  endloop
endfacet
facet normal 0.9238795325112744 4.665209449633352e-19 0.38268343236512004
  outer loop
    vertex -82.98272219848327 -44.024355310911076 2.74118095489748
    vertex -82.88282177597864 -41.02435531091107 2.500000000000001
    vertex -82.98272219848327 -41.02435531091107 2.74118095489748
  endloop
endfacet
facet normal 0.9238795325112744 4.665209449633352e-19 0.38268343236512004
  outer loop
    vertex -82.88282177597864 -41.02435531091107 2.500000000000001
    vertex -82.98272219848327 -44.024355310911076 2.74118095489748
    vertex -82.88282177597864 -44.024355310911076 2.500000000000001
  endloop
endfacet
facet normal 0.1305261922200547 -1.5141409944080883e-15 -0.99144486137381
  outer loop
    vertex -82.27561541729672 -44.024355310911076 3.965925826289078
    vertex -82.0167963721942 -41.02435531091107 4.0000000000000036
    vertex -82.0167963721942 -44.024355310911076 4.00000000000001
  endloop
endfacet
facet normal 0.1305261922200547 -1.5141409944080883e-15 -0.99144486137381
  outer loop
    vertex -82.0167963721942 -41.02435531091107 4.0000000000000036
    vertex -82.27561541729672 -44.024355310911076 3.965925826289078
    vertex -82.27561541729672 -41.02435531091107 3.965925826289072
  endloop
endfacet
facet normal -0.38268343236509406 -8.975539363089498e-19 0.9238795325112852
  outer loop
    vertex -81.75797732709168 -41.02435531091107 2.0340741737109336
    vertex -81.51679637219421 -44.024355310911076 2.133974596215561
    vertex -81.51679637219421 -41.02435531091107 2.133974596215561
  endloop
endfacet
facet normal -0.38268343236509406 -8.975539363089498e-19 0.9238795325112852
  outer loop
    vertex -81.51679637219421 -44.024355310911076 2.133974596215561
    vertex -81.75797732709168 -41.02435531091107 2.0340741737109336
    vertex -81.75797732709168 -44.024355310911076 2.034074173710931
  endloop
endfacet
facet normal -0.6087614290087144 -4.314083075427408e-30 0.79335334029124
  outer loop
    vertex -81.51679637219421 -41.02435531091107 2.133974596215561
    vertex -81.30968959100765 -44.024355310911076 2.292893218813454
    vertex -81.30968959100765 -41.02435531091107 2.292893218813454
  endloop
endfacet
facet normal -0.6087614290087144 -4.314083075427408e-30 0.79335334029124
  outer loop
    vertex -81.30968959100765 -44.024355310911076 2.292893218813454
    vertex -81.51679637219421 -41.02435531091107 2.133974596215561
    vertex -81.51679637219421 -44.024355310911076 2.133974596215561
  endloop
endfacet
facet normal 0.7933533402912278 -1.678868315762804e-18 0.6087614290087302
  outer loop
    vertex -82.88282177597864 -44.024355310911076 2.500000000000001
    vertex -82.72390315338075 -41.02435531091107 2.292893218813454
    vertex -82.88282177597864 -41.02435531091107 2.500000000000001
  endloop
endfacet
facet normal 0.7933533402912278 -1.678868315762804e-18 0.6087614290087302
  outer loop
    vertex -82.72390315338075 -41.02435531091107 2.292893218813454
    vertex -82.88282177597864 -44.024355310911076 2.500000000000001
    vertex -82.72390315338075 -44.024355310911076 2.292893218813454
  endloop
endfacet
facet normal -0.38268343236510094 -1.4114213088204363e-15 -0.9238795325112822
  outer loop
    vertex -81.75797732709168 -44.024355310911076 3.965925826289078
    vertex -81.51679637219421 -41.02435531091107 3.8660254037844393
    vertex -81.51679637219421 -44.024355310911076 3.866025403784445
  endloop
endfacet
facet normal -0.38268343236510094 -1.4114213088204363e-15 -0.9238795325112822
  outer loop
    vertex -81.51679637219421 -41.02435531091107 3.8660254037844393
    vertex -81.75797732709168 -44.024355310911076 3.965925826289078
    vertex -81.75797732709168 -41.02435531091107 3.965925826289072
  endloop
endfacet
facet normal 1.0 0.0 0.0
  outer loop
    vertex -79.01679637219421 -44.024355310911076 6.000000000000006
    vertex -79.01679637219421 -41.024355310911076 2.8199664825478975e-15
    vertex -79.01679637219421 -41.02435531091107 6.0
  endloop
endfacet
facet normal 1.0 0.0 0.0
  outer loop
    vertex -79.01679637219421 -41.024355310911076 2.8199664825478975e-15
    vertex -79.01679637219421 -44.024355310911076 6.000000000000006
    vertex -79.01679637219421 -44.024355310911076 2.8199664825478975e-15
  endloop
endfacet
facet normal -0.9914448613738134 4.6157710862105716e-17 0.13052619222003006
  outer loop
    vertex -81.05087054590513 -44.024355310911076 2.74118095489748
    vertex -81.0167963721942 -41.02435531091107 3.0
    vertex -81.05087054590513 -41.02435531091107 2.74118095489748
  endloop
endfacet
facet normal -0.9914448613738134 4.6157710862105716e-17 0.13052619222003006
  outer loop
    vertex -81.0167963721942 -41.02435531091107 3.0
    vertex -81.05087054590513 -44.024355310911076 2.74118095489748
    vertex -81.0167963721942 -44.024355310911076 3.000000000000003
  endloop
endfacet
facet normal -0.13052619222006032 -1.5141409944080879e-15 -0.9914448613738094
  outer loop
    vertex -82.0167963721942 -44.024355310911076 4.00000000000001
    vertex -81.75797732709168 -41.02435531091107 3.965925826289072
    vertex -81.75797732709168 -44.024355310911076 3.965925826289078
  endloop
endfacet
facet normal -0.13052619222006032 -1.5141409944080879e-15 -0.9914448613738094
  outer loop
    vertex -81.75797732709168 -41.02435531091107 3.965925826289072
    vertex -82.0167963721942 -44.024355310911076 4.00000000000001
    vertex -82.0167963721942 -41.02435531091107 4.0000000000000036
  endloop
endfacet
facet normal -0.9238795325112744 -5.844366090333175e-16 -0.3826834323651195
  outer loop
    vertex -81.05087054590513 -44.024355310911076 3.2588190451025287
    vertex -81.15077096840976 -41.02435531091107 3.499999999999999
    vertex -81.05087054590513 -41.02435531091107 3.258819045102523
  endloop
endfacet
facet normal -0.9238795325112744 -5.844366090333175e-16 -0.3826834323651195
  outer loop
    vertex -81.15077096840976 -41.02435531091107 3.499999999999999
    vertex -81.05087054590513 -44.024355310911076 3.2588190451025287
    vertex -81.15077096840976 -44.024355310911076 3.500000000000005
  endloop
endfacet
facet normal -0.9238795325112744 -5.540741635968492e-19 0.38268343236512004
  outer loop
    vertex -81.15077096840976 -44.024355310911076 2.500000000000001
    vertex -81.05087054590513 -41.02435531091107 2.74118095489748
    vertex -81.15077096840976 -41.02435531091107 2.500000000000001
  endloop
endfacet
facet normal -0.9238795325112744 -5.540741635968492e-19 0.38268343236512004
  outer loop
    vertex -81.05087054590513 -41.02435531091107 2.74118095489748
    vertex -81.15077096840976 -44.024355310911076 2.500000000000001
    vertex -81.05087054590513 -44.024355310911076 2.74118095489748
  endloop
endfacet
facet normal -0.6087614290087153 -6.50510500354516e-16 -0.7933533402912393
  outer loop
    vertex -81.51679637219421 -44.024355310911076 3.866025403784445
    vertex -81.30968959100765 -41.02435531091107 3.7071067811865492
    vertex -81.30968959100765 -44.024355310911076 3.7071067811865492
  endloop
endfacet
facet normal -0.6087614290087153 -6.50510500354516e-16 -0.7933533402912393
  outer loop
    vertex -81.30968959100765 -41.02435531091107 3.7071067811865492
    vertex -81.51679637219421 -44.024355310911076 3.866025403784445
    vertex -81.51679637219421 -41.02435531091107 3.8660254037844393
  endloop
endfacet
facet normal 1.0 0.0 0.0
  outer loop
    vertex -85.01679637219421 -50.09447312639893 6.0
    vertex -85.0167963721942 -45.02435531091107 5.639932965095795e-15
    vertex -85.0167963721942 -45.02435531091107 6.000000000000006
  endloop
endfacet
facet normal 1.0 0.0 0.0
  outer loop
    vertex -85.0167963721942 -45.02435531091107 5.639932965095795e-15
    vertex -85.01679637219421 -50.09447312639893 6.0
    vertex -85.01679637219421 -50.094473126398924 1.127986593019159e-14
  endloop
endfacet
facet normal 0.7071067811865476 -0.7071067811865476 3.297398602358151e-16
  outer loop
    vertex -85.0167963721942 -45.02435531091107 6.000000000000006
    vertex -84.01679637219421 -44.024355310911076 2.8199664825478975e-15
    vertex -84.01679637219421 -44.02435531091107 6.000000000000006
  endloop
endfacet
facet normal 0.7071067811865476 -0.7071067811865476 3.297398602358151e-16
  outer loop
    vertex -84.01679637219421 -44.024355310911076 2.8199664825478975e-15
    vertex -85.0167963721942 -45.02435531091107 6.000000000000006
    vertex -85.0167963721942 -45.02435531091107 5.639932965095795e-15
  endloop
endfacet
facet normal -9.039990978010347e-16 -1.0 5.014507327890291e-16
  outer loop
    vertex -79.01679637219421 -44.024355310911076 2.8199664825478975e-15
    vertex -81.30968959100765 -44.024355310911076 2.292893218813454
    vertex -84.01679637219421 -44.024355310911076 2.8199664825478975e-15
  endloop
endfacet
facet normal -9.039990978010347e-16 -1.0 5.014507327890291e-16
  outer loop
    vertex -81.30968959100765 -44.024355310911076 2.292893218813454
    vertex -79.01679637219421 -44.024355310911076 2.8199664825478975e-15
    vertex -81.15077096840976 -44.024355310911076 2.500000000000001
  endloop
endfacet
facet normal -9.039990978010347e-16 -1.0 5.014507327890291e-16
  outer loop
    vertex -81.15077096840976 -44.024355310911076 2.500000000000001
    vertex -79.01679637219421 -44.024355310911076 2.8199664825478975e-15
    vertex -79.01679637219421 -44.024355310911076 6.000000000000006
  endloop
endfacet
facet normal -9.039990978010347e-16 -1.0 5.014507327890291e-16
  outer loop
    vertex -84.01679637219421 -44.024355310911076 2.8199664825478975e-15
    vertex -81.30968959100765 -44.024355310911076 2.292893218813454
    vertex -81.51679637219421 -44.024355310911076 2.133974596215561
  endloop
endfacet
facet normal -9.039990978010347e-16 -1.0 5.014507327890291e-16
  outer loop
    vertex -84.01679637219421 -44.024355310911076 2.8199664825478975e-15
    vertex -81.51679637219421 -44.024355310911076 2.133974596215561
    vertex -81.75797732709168 -44.024355310911076 2.034074173710931
  endloop
endfacet
facet normal -9.039990978010347e-16 -1.0 5.014507327890291e-16
  outer loop
    vertex -84.01679637219421 -44.024355310911076 2.8199664825478975e-15
    vertex -81.75797732709168 -44.024355310911076 2.034074173710931
    vertex -82.0167963721942 -44.024355310911076 2.0000000000000018
  endloop
endfacet
facet normal -9.039990978010347e-16 -1.0 5.014507327890291e-16
  outer loop
    vertex -81.15077096840976 -44.024355310911076 2.500000000000001
    vertex -79.01679637219421 -44.024355310911076 6.000000000000006
    vertex -81.05087054590513 -44.024355310911076 2.74118095489748
  endloop
endfacet
facet normal -9.039990978010347e-16 -1.0 5.014507327890291e-16
  outer loop
    vertex -81.05087054590513 -44.024355310911076 2.74118095489748
    vertex -79.01679637219421 -44.024355310911076 6.000000000000006
    vertex -81.0167963721942 -44.024355310911076 3.000000000000003
  endloop
endfacet
facet normal -9.039990978010347e-16 -1.0 5.014507327890291e-16
  outer loop
    vertex -81.0167963721942 -44.024355310911076 3.000000000000003
    vertex -79.01679637219421 -44.024355310911076 6.000000000000006
    vertex -81.05087054590513 -44.024355310911076 3.2588190451025287
  endloop
endfacet
facet normal -9.039990978010347e-16 -1.0 5.014507327890291e-16
  outer loop
    vertex -81.05087054590513 -44.024355310911076 3.2588190451025287
    vertex -79.01679637219421 -44.024355310911076 6.000000000000006
    vertex -81.15077096840976 -44.024355310911076 3.500000000000005
  endloop
endfacet
facet normal -9.039990978010347e-16 -1.0 5.014507327890291e-16
  outer loop
    vertex -81.15077096840976 -44.024355310911076 3.500000000000005
    vertex -79.01679637219421 -44.024355310911076 6.000000000000006
    vertex -81.30968959100765 -44.024355310911076 3.7071067811865492
  endloop
endfacet
facet normal -9.039990978010347e-16 -1.0 5.014507327890291e-16
  outer loop
    vertex -81.30968959100765 -44.024355310911076 3.7071067811865492
    vertex -79.01679637219421 -44.024355310911076 6.000000000000006
    vertex -81.51679637219421 -44.024355310911076 3.866025403784445
  endloop
endfacet
facet normal -9.039990978010347e-16 -1.0 5.014507327890291e-16
  outer loop
    vertex -81.51679637219421 -44.024355310911076 3.866025403784445
    vertex -79.01679637219421 -44.024355310911076 6.000000000000006
    vertex -81.75797732709168 -44.024355310911076 3.965925826289078
  endloop
endfacet
facet normal -9.039990978010347e-16 -1.0 5.014507327890291e-16
  outer loop
    vertex -81.75797732709168 -44.024355310911076 3.965925826289078
    vertex -79.01679637219421 -44.024355310911076 6.000000000000006
    vertex -82.0167963721942 -44.024355310911076 4.00000000000001
  endloop
endfacet
facet normal -9.039990978010347e-16 -1.0 5.014507327890291e-16
  outer loop
    vertex -84.01679637219421 -44.024355310911076 2.8199664825478975e-15
    vertex -82.98272219848327 -44.024355310911076 2.74118095489748
    vertex -84.01679637219421 -44.02435531091107 6.000000000000006
  endloop
endfacet
facet normal -9.039990978010347e-16 -1.0 5.014507327890291e-16
  outer loop
    vertex -82.98272219848327 -44.024355310911076 2.74118095489748
    vertex -84.01679637219421 -44.024355310911076 2.8199664825478975e-15
    vertex -82.88282177597864 -44.024355310911076 2.500000000000001
  endloop
endfacet
facet normal -9.039990978010347e-16 -1.0 5.014507327890291e-16
  outer loop
    vertex -82.88282177597864 -44.024355310911076 2.500000000000001
    vertex -84.01679637219421 -44.024355310911076 2.8199664825478975e-15
    vertex -82.72390315338075 -44.024355310911076 2.292893218813454
  endloop
endfacet
facet normal -9.039990978010347e-16 -1.0 5.014507327890291e-16
  outer loop
    vertex -82.72390315338075 -44.024355310911076 2.292893218813454
    vertex -84.01679637219421 -44.024355310911076 2.8199664825478975e-15
    vertex -82.5167963721942 -44.024355310911076 2.133974596215561
  endloop
endfacet
facet normal -9.039990978010347e-16 -1.0 5.014507327890291e-16
  outer loop
    vertex -82.5167963721942 -44.024355310911076 2.133974596215561
    vertex -84.01679637219421 -44.024355310911076 2.8199664825478975e-15
    vertex -82.27561541729672 -44.024355310911076 2.034074173710931
  endloop
endfacet
facet normal -9.039990978010347e-16 -1.0 5.014507327890291e-16
  outer loop
    vertex -82.27561541729672 -44.024355310911076 2.034074173710931
    vertex -84.01679637219421 -44.024355310911076 2.8199664825478975e-15
    vertex -82.0167963721942 -44.024355310911076 2.0000000000000018
  endloop
endfacet
facet normal -9.039990978010347e-16 -1.0 5.014507327890291e-16
  outer loop
    vertex -84.01679637219421 -44.02435531091107 6.000000000000006
    vertex -82.98272219848327 -44.024355310911076 2.74118095489748
    vertex -83.01679637219421 -44.024355310911076 3.000000000000003
  endloop
endfacet
facet normal -9.039990978010347e-16 -1.0 5.014507327890291e-16
  outer loop
    vertex -84.01679637219421 -44.02435531091107 6.000000000000006
    vertex -83.01679637219421 -44.024355310911076 3.000000000000003
    vertex -82.98272219848327 -44.024355310911076 3.2588190451025287
  endloop
endfacet
facet normal -9.039990978010347e-16 -1.0 5.014507327890291e-16
  outer loop
    vertex -84.01679637219421 -44.02435531091107 6.000000000000006
    vertex -82.98272219848327 -44.024355310911076 3.2588190451025287
    vertex -82.88282177597864 -44.024355310911076 3.500000000000005
  endloop
endfacet
facet normal -9.039990978010347e-16 -1.0 5.014507327890291e-16
  outer loop
    vertex -84.01679637219421 -44.02435531091107 6.000000000000006
    vertex -82.88282177597864 -44.024355310911076 3.500000000000005
    vertex -82.72390315338075 -44.024355310911076 3.7071067811865492
  endloop
endfacet
facet normal -9.039990978010347e-16 -1.0 5.014507327890291e-16
  outer loop
    vertex -84.01679637219421 -44.02435531091107 6.000000000000006
    vertex -82.72390315338075 -44.024355310911076 3.7071067811865492
    vertex -82.5167963721942 -44.024355310911076 3.866025403784445
  endloop
endfacet
facet normal -9.039990978010347e-16 -1.0 5.014507327890291e-16
  outer loop
    vertex -84.01679637219421 -44.02435531091107 6.000000000000006
    vertex -82.5167963721942 -44.024355310911076 3.866025403784445
    vertex -82.27561541729672 -44.024355310911076 3.965925826289078
  endloop
endfacet
facet normal -9.039990978010347e-16 -1.0 5.014507327890291e-16
  outer loop
    vertex -84.01679637219421 -44.02435531091107 6.000000000000006
    vertex -82.27561541729672 -44.024355310911076 3.965925826289078
    vertex -82.0167963721942 -44.024355310911076 4.00000000000001
  endloop
endfacet
facet normal -9.039990978010347e-16 -1.0 5.014507327890291e-16
  outer loop
    vertex -84.01679637219421 -44.02435531091107 6.000000000000006
    vertex -82.0167963721942 -44.024355310911076 4.00000000000001
    vertex -79.01679637219421 -44.024355310911076 6.000000000000006
  endloop
endfacet
facet normal 2.2398749521812623e-16 -1.0 5.014507327890291e-16
  outer loop
    vertex -102.01679637219421 -44.02435531091106 2.8199664825478975e-15
    vertex -103.5167963721942 -44.02435531091106 2.133974596215561
    vertex -107.0167963721942 -44.02435531091106 2.8199664825478975e-15
  endloop
endfacet
facet normal 2.2398749521812623e-16 -1.0 5.014507327890291e-16
  outer loop
    vertex -103.5167963721942 -44.02435531091106 2.133974596215561
    vertex -102.01679637219421 -44.02435531091106 2.8199664825478975e-15
    vertex -103.30968959100767 -44.02435531091106 2.292893218813454
  endloop
endfacet
facet normal 2.2398749521812623e-16 -1.0 5.014507327890291e-16
  outer loop
    vertex -103.30968959100767 -44.02435531091106 2.292893218813454
    vertex -102.01679637219421 -44.02435531091106 2.8199664825478975e-15
    vertex -103.15077096840976 -44.02435531091106 2.500000000000001
  endloop
endfacet
facet normal 2.2398749521812623e-16 -1.0 5.014507327890291e-16
  outer loop
    vertex -103.15077096840976 -44.02435531091106 2.500000000000001
    vertex -102.01679637219421 -44.02435531091106 2.8199664825478975e-15
    vertex -103.05087054590514 -44.02435531091106 2.741180954897483
  endloop
endfacet
facet normal 2.2398749521812623e-16 -1.0 5.014507327890291e-16
  outer loop
    vertex -103.05087054590514 -44.02435531091106 2.741180954897483
    vertex -102.01679637219421 -44.02435531091106 2.8199664825478975e-15
    vertex -102.01679637219421 -44.02435531091106 6.000000000000006
  endloop
endfacet
facet normal 2.2398749521812623e-16 -1.0 5.014507327890291e-16
  outer loop
    vertex -107.0167963721942 -44.02435531091106 2.8199664825478975e-15
    vertex -103.5167963721942 -44.02435531091106 2.133974596215561
    vertex -103.75797732709171 -44.02435531091106 2.034074173710931
  endloop
endfacet
facet normal 2.2398749521812623e-16 -1.0 5.014507327890291e-16
  outer loop
    vertex -107.0167963721942 -44.02435531091106 2.8199664825478975e-15
    vertex -103.75797732709171 -44.02435531091106 2.034074173710931
    vertex -104.0167963721942 -44.02435531091106 2.0000000000000018
  endloop
endfacet
facet normal 2.2398749521812623e-16 -1.0 5.014507327890291e-16
  outer loop
    vertex -103.05087054590514 -44.02435531091106 2.741180954897483
    vertex -102.01679637219421 -44.02435531091106 6.000000000000006
    vertex -103.0167963721942 -44.02435531091106 3.000000000000003
  endloop
endfacet
facet normal 2.2398749521812623e-16 -1.0 5.014507327890291e-16
  outer loop
    vertex -103.0167963721942 -44.02435531091106 3.000000000000003
    vertex -102.01679637219421 -44.02435531091106 6.000000000000006
    vertex -103.05087054590514 -44.02435531091106 3.2588190451025287
  endloop
endfacet
facet normal 2.2398749521812623e-16 -1.0 5.014507327890291e-16
  outer loop
    vertex -103.05087054590514 -44.02435531091106 3.2588190451025287
    vertex -102.01679637219421 -44.02435531091106 6.000000000000006
    vertex -103.15077096840976 -44.02435531091106 3.500000000000005
  endloop
endfacet
facet normal 2.2398749521812623e-16 -1.0 5.014507327890291e-16
  outer loop
    vertex -103.15077096840976 -44.02435531091106 3.500000000000005
    vertex -102.01679637219421 -44.02435531091106 6.000000000000006
    vertex -103.30968959100767 -44.02435531091106 3.7071067811865492
  endloop
endfacet
facet normal 2.2398749521812623e-16 -1.0 5.014507327890291e-16
  outer loop
    vertex -103.30968959100767 -44.02435531091106 3.7071067811865492
    vertex -102.01679637219421 -44.02435531091106 6.000000000000006
    vertex -103.5167963721942 -44.02435531091107 3.866025403784445
  endloop
endfacet
facet normal 2.2398749521812623e-16 -1.0 5.014507327890291e-16
  outer loop
    vertex -103.5167963721942 -44.02435531091107 3.866025403784445
    vertex -102.01679637219421 -44.02435531091106 6.000000000000006
    vertex -103.75797732709171 -44.02435531091106 3.965925826289078
  endloop
endfacet
facet normal 2.2398749521812623e-16 -1.0 5.014507327890291e-16
  outer loop
    vertex -103.75797732709171 -44.02435531091106 3.965925826289078
    vertex -102.01679637219421 -44.02435531091106 6.000000000000006
    vertex -104.0167963721942 -44.02435531091106 4.00000000000001
  endloop
endfacet
facet normal 2.2398749521812623e-16 -1.0 5.014507327890291e-16
  outer loop
    vertex -107.0167963721942 -44.02435531091106 2.8199664825478975e-15
    vertex -104.88282177597866 -44.02435531091106 2.500000000000001
    vertex -107.0167963721942 -44.02435531091106 6.000000000000006
  endloop
endfacet
facet normal 2.2398749521812623e-16 -1.0 5.014507327890291e-16
  outer loop
    vertex -104.88282177597866 -44.02435531091106 2.500000000000001
    vertex -107.0167963721942 -44.02435531091106 2.8199664825478975e-15
    vertex -104.72390315338075 -44.02435531091106 2.292893218813454
  endloop
endfacet
facet normal 2.2398749521812623e-16 -1.0 5.014507327890291e-16
  outer loop
    vertex -104.72390315338075 -44.02435531091106 2.292893218813454
    vertex -107.0167963721942 -44.02435531091106 2.8199664825478975e-15
    vertex -104.51679637219422 -44.02435531091106 2.133974596215561
  endloop
endfacet
facet normal 2.2398749521812623e-16 -1.0 5.014507327890291e-16
  outer loop
    vertex -104.51679637219422 -44.02435531091106 2.133974596215561
    vertex -107.0167963721942 -44.02435531091106 2.8199664825478975e-15
    vertex -104.27561541729673 -44.02435531091106 2.034074173710931
  endloop
endfacet
facet normal 2.2398749521812623e-16 -1.0 5.014507327890291e-16
  outer loop
    vertex -104.27561541729673 -44.02435531091106 2.034074173710931
    vertex -107.0167963721942 -44.02435531091106 2.8199664825478975e-15
    vertex -104.0167963721942 -44.02435531091106 2.0000000000000018
  endloop
endfacet
facet normal 2.2398749521812623e-16 -1.0 5.014507327890291e-16
  outer loop
    vertex -107.0167963721942 -44.02435531091106 6.000000000000006
    vertex -104.88282177597866 -44.02435531091106 2.500000000000001
    vertex -104.98272219848329 -44.02435531091106 2.74118095489748
  endloop
endfacet
facet normal 2.2398749521812623e-16 -1.0 5.014507327890291e-16
  outer loop
    vertex -107.0167963721942 -44.02435531091106 6.000000000000006
    vertex -104.98272219848329 -44.02435531091106 2.74118095489748
    vertex -105.01679637219422 -44.02435531091106 3.000000000000003
  endloop
endfacet
facet normal 2.2398749521812623e-16 -1.0 5.014507327890291e-16
  outer loop
    vertex -107.0167963721942 -44.02435531091106 6.000000000000006
    vertex -105.01679637219422 -44.02435531091106 3.000000000000003
    vertex -104.98272219848329 -44.02435531091106 3.2588190451025287
  endloop
endfacet
facet normal 2.2398749521812623e-16 -1.0 5.014507327890291e-16
  outer loop
    vertex -107.0167963721942 -44.02435531091106 6.000000000000006
    vertex -104.98272219848329 -44.02435531091106 3.2588190451025287
    vertex -104.88282177597866 -44.02435531091106 3.500000000000005
  endloop
endfacet
facet normal 2.2398749521812623e-16 -1.0 5.014507327890291e-16
  outer loop
    vertex -107.0167963721942 -44.02435531091106 6.000000000000006
    vertex -104.88282177597866 -44.02435531091106 3.500000000000005
    vertex -104.72390315338075 -44.02435531091106 3.7071067811865492
  endloop
endfacet
facet normal 2.2398749521812623e-16 -1.0 5.014507327890291e-16
  outer loop
    vertex -107.0167963721942 -44.02435531091106 6.000000000000006
    vertex -104.72390315338075 -44.02435531091106 3.7071067811865492
    vertex -104.51679637219422 -44.02435531091106 3.866025403784445
  endloop
endfacet
facet normal 2.2398749521812623e-16 -1.0 5.014507327890291e-16
  outer loop
    vertex -107.0167963721942 -44.02435531091106 6.000000000000006
    vertex -104.51679637219422 -44.02435531091106 3.866025403784445
    vertex -104.27561541729673 -44.02435531091106 3.965925826289078
  endloop
endfacet
facet normal 2.2398749521812623e-16 -1.0 5.014507327890291e-16
  outer loop
    vertex -107.0167963721942 -44.02435531091106 6.000000000000006
    vertex -104.27561541729673 -44.02435531091106 3.965925826289078
    vertex -104.0167963721942 -44.02435531091106 4.00000000000001
  endloop
endfacet
facet normal 2.2398749521812623e-16 -1.0 5.014507327890291e-16
  outer loop
    vertex -107.0167963721942 -44.02435531091106 6.000000000000006
    vertex -104.0167963721942 -44.02435531091106 4.00000000000001
    vertex -102.01679637219421 -44.02435531091106 6.000000000000006
  endloop
endfacet
facet normal -0.707106781186549 -0.707106781186546 5.001054546909847e-16
  outer loop
    vertex -101.0167963721942 -45.02435531091107 2.8199664825478975e-15
    vertex -102.01679637219421 -44.02435531091106 6.000000000000006
    vertex -102.01679637219421 -44.02435531091106 2.8199664825478975e-15
  endloop
endfacet
facet normal -0.707106781186549 -0.707106781186546 5.001054546909847e-16
  outer loop
    vertex -102.01679637219421 -44.02435531091106 6.000000000000006
    vertex -101.0167963721942 -45.02435531091107 2.8199664825478975e-15
    vertex -101.0167963721942 -45.02435531091106 6.000000000000006
  endloop
endfacet
facet normal -1.0 0.0 0.0
  outer loop
    vertex -101.0167963721942 -45.02435531091107 2.8199664825478975e-15
    vertex -101.01679637219421 -50.09447312639893 6.0
    vertex -101.0167963721942 -45.02435531091106 6.000000000000006
  endloop
endfacet
facet normal -1.0 0.0 0.0
  outer loop
    vertex -101.01679637219421 -50.09447312639893 6.0
    vertex -101.0167963721942 -45.02435531091107 2.8199664825478975e-15
    vertex -101.01679637219421 -50.09447312639893 1.127986593019159e-14
  endloop
endfacet
facet normal -7.209678353887733e-18 -2.4985644930757155e-16 1.0
  outer loop
    vertex -86.8667963721942 -41.02435531091106 6.0
    vertex -79.01679637219421 -44.024355310911076 6.000000000000006
    vertex -79.01679637219421 -41.02435531091107 6.0
  endloop
endfacet
facet normal -7.209678353887733e-18 -2.4985644930757155e-16 1.0
  outer loop
    vertex -79.01679637219421 -44.024355310911076 6.000000000000006
    vertex -86.8667963721942 -41.02435531091106 6.0
    vertex -84.01679637219421 -44.02435531091107 6.000000000000006
  endloop
endfacet
facet normal -7.209678353887733e-18 -2.4985644930757155e-16 1.0
  outer loop
    vertex -84.01679637219421 -44.02435531091107 6.000000000000006
    vertex -86.8667963721942 -41.02435531091106 6.0
    vertex -85.0167963721942 -45.02435531091107 6.000000000000006
  endloop
endfacet
facet normal -7.209678353887733e-18 -2.4985644930757155e-16 1.0
  outer loop
    vertex -85.0167963721942 -45.02435531091107 6.000000000000006
    vertex -86.8667963721942 -41.02435531091106 6.0
    vertex -85.01679637219421 -50.09447312639893 6.0
  endloop
endfacet
facet normal -7.209678353887733e-18 -2.4985644930757155e-16 1.0
  outer loop
    vertex -85.01679637219421 -50.09447312639893 6.0
    vertex -86.8667963721942 -41.02435531091106 6.0
    vertex -85.94572856032875 -51.305081123624745 6.0
  endloop
endfacet
facet normal -7.209678353887733e-18 -2.4985644930757155e-16 1.0
  outer loop
    vertex -85.94572856032875 -51.305081123624745 6.0
    vertex -86.8667963721942 -41.02435531091106 6.0
    vertex -86.8667963721942 -49.61205763264141 6.0
  endloop
endfacet
facet normal -7.209678353887733e-18 -2.4985644930757155e-16 1.0
  outer loop
    vertex -85.94572856032875 -51.305081123624745 6.0
    vertex -86.8667963721942 -49.61205763264141 6.0
    vertex -88.01679637219421 -52.89426734960365 6.0
  endloop
endfacet
facet normal -7.209678353887733e-18 -2.4985644930757155e-16 1.0
  outer loop
    vertex -88.01679637219421 -52.89426734960365 6.0
    vertex -86.8667963721942 -49.61205763264141 6.0
    vertex -87.21852076646451 -50.06819780625847 6.0
  endloop
endfacet
facet normal -7.209678353887733e-18 -2.4985644930757155e-16 1.0
  outer loop
    vertex -88.01679637219421 -52.89426734960365 6.0
    vertex -87.21852076646451 -50.06819780625847 6.0
    vertex -88.9167963721942 -51.36497376665727 6.0
  endloop
endfacet
facet normal -7.209678353887733e-18 -2.4985644930757155e-16 1.0
  outer loop
    vertex -88.01679637219421 -52.89426734960365 6.0
    vertex -88.9167963721942 -51.36497376665727 6.0
    vertex -90.42860592116901 -53.89327157464995 6.0
  endloop
endfacet
facet normal -7.209678353887733e-18 -2.4985644930757155e-16 1.0
  outer loop
    vertex -90.42860592116901 -53.89327157464995 6.0
    vertex -88.9167963721942 -51.36497376665727 6.0
    vertex -90.89448020235355 -52.18016121429504 6.0
  endloop
endfacet
facet normal -7.209678353887733e-18 -2.4985644930757155e-16 1.0
  outer loop
    vertex -90.42860592116901 -53.89327157464995 6.0
    vertex -90.89448020235355 -52.18016121429504 6.0
    vertex -93.01679637219421 -54.23401331175928 6.0
  endloop
endfacet
facet normal -7.209678353887733e-18 -2.4985644930757155e-16 1.0
  outer loop
    vertex -93.01679637219421 -54.23401331175928 6.0
    vertex -90.89448020235355 -52.18016121429504 6.0
    vertex -93.0167963721942 -52.45820647177626 6.0
  endloop
endfacet
facet normal -7.209678353887733e-18 -2.4985644930757155e-16 1.0
  outer loop
    vertex -93.01679637219421 -54.23401331175928 6.0
    vertex -93.0167963721942 -52.45820647177626 6.0
    vertex -95.13911254203488 -52.18016121429504 6.0
  endloop
endfacet
facet normal -7.209678353887733e-18 -2.4985644930757155e-16 1.0
  outer loop
    vertex -93.01679637219421 -54.23401331175928 6.0
    vertex -95.13911254203488 -52.18016121429504 6.0
    vertex -95.6049868232194 -53.89327157464995 6.0
  endloop
endfacet
facet normal -7.209678353887733e-18 -2.4985644930757155e-16 1.0
  outer loop
    vertex -95.6049868232194 -53.89327157464995 6.0
    vertex -95.13911254203488 -52.18016121429504 6.0
    vertex -97.11679637219422 -51.36497376665727 6.0
  endloop
endfacet
facet normal -7.209678353887733e-18 -2.4985644930757155e-16 1.0
  outer loop
    vertex -95.6049868232194 -53.89327157464995 6.0
    vertex -97.11679637219422 -51.36497376665727 6.0
    vertex -98.01679637219421 -52.89426734960365 6.0
  endloop
endfacet
facet normal -7.209678353887733e-18 -2.4985644930757155e-16 1.0
  outer loop
    vertex -98.01679637219421 -52.89426734960365 6.0
    vertex -97.11679637219422 -51.36497376665727 6.0
    vertex -98.8150719779239 -50.068197806258475 6.0
  endloop
endfacet
facet normal -7.209678353887733e-18 -2.4985644930757155e-16 1.0
  outer loop
    vertex -98.01679637219421 -52.89426734960365 6.0
    vertex -98.8150719779239 -50.068197806258475 6.0
    vertex -100.08786418405968 -51.305081123624745 6.0
  endloop
endfacet
facet normal -7.209678353887733e-18 -2.4985644930757155e-16 1.0
  outer loop
    vertex -100.08786418405968 -51.305081123624745 6.0
    vertex -98.8150719779239 -50.068197806258475 6.0
    vertex -99.16679637219421 -49.61205763264141 6.0
  endloop
endfacet
facet normal -7.209678353887733e-18 -2.4985644930757155e-16 1.0
  outer loop
    vertex -107.0167963721942 -41.024355310911055 6.0
    vertex -99.1667963721942 -45.318206471776236 6.0
    vertex -99.1667963721942 -41.02435531091107 6.0
  endloop
endfacet
facet normal -7.209678353887733e-18 -2.4985644930757155e-16 1.0
  outer loop
    vertex -99.1667963721942 -45.318206471776236 6.0
    vertex -107.0167963721942 -41.024355310911055 6.0
    vertex -102.01679637219421 -44.02435531091106 6.000000000000006
  endloop
endfacet
facet normal -7.209678353887733e-18 -2.4985644930757155e-16 1.0
  outer loop
    vertex -99.1667963721942 -45.318206471776236 6.0
    vertex -102.01679637219421 -44.02435531091106 6.000000000000006
    vertex -101.0167963721942 -45.02435531091106 6.000000000000006
  endloop
endfacet
facet normal -7.209678353887733e-18 -2.4985644930757155e-16 1.0
  outer loop
    vertex -99.1667963721942 -45.318206471776236 6.0
    vertex -101.0167963721942 -45.02435531091106 6.000000000000006
    vertex -99.16679637219421 -49.61205763264141 6.0
  endloop
endfacet
facet normal -7.209678353887733e-18 -2.4985644930757155e-16 1.0
  outer loop
    vertex -99.16679637219421 -49.61205763264141 6.0
    vertex -101.0167963721942 -45.02435531091106 6.000000000000006
    vertex -100.08786418405968 -51.305081123624745 6.0
  endloop
endfacet
facet normal -7.209678353887733e-18 -2.4985644930757155e-16 1.0
  outer loop
    vertex -102.01679637219421 -44.02435531091106 6.000000000000006
    vertex -107.0167963721942 -41.024355310911055 6.0
    vertex -107.0167963721942 -44.02435531091106 6.000000000000006
  endloop
endfacet
facet normal -7.209678353887733e-18 -2.4985644930757155e-16 1.0
  outer loop
    vertex -101.01679637219421 -50.09447312639893 6.0
    vertex -100.08786418405968 -51.305081123624745 6.0
    vertex -101.0167963721942 -45.02435531091106 6.000000000000006
  endloop
endfacet
facet normal -3.4781357316491015e-18 -1.3645080631989698e-16 -1.0
  outer loop
    vertex -85.94572856032875 -51.30508112362475 2.8199664825478975e-15
    vertex -85.0167963721942 -45.02435531091107 5.639932965095795e-15
    vertex -85.01679637219421 -50.094473126398924 1.127986593019159e-14
  endloop
endfacet
facet normal -3.4781357316491015e-18 -1.3645080631989698e-16 -1.0
  outer loop
    vertex -88.01679637219421 -52.894267349603666 1.127986593019159e-14
    vertex -86.8667963721942 -49.61205763264141 2.8199664825478975e-15
    vertex -85.94572856032875 -51.30508112362475 2.8199664825478975e-15
  endloop
endfacet
facet normal -3.4781357316491015e-18 -1.3645080631989698e-16 -1.0
  outer loop
    vertex -86.8667963721942 -49.61205763264141 2.8199664825478975e-15
    vertex -88.01679637219421 -52.894267349603666 1.127986593019159e-14
    vertex -87.21852076646451 -50.06819780625845 2.8199664825478975e-15
  endloop
endfacet
facet normal -3.4781357316491015e-18 -1.3645080631989698e-16 -1.0
  outer loop
    vertex -87.21852076646451 -50.06819780625845 2.8199664825478975e-15
    vertex -88.01679637219421 -52.894267349603666 1.127986593019159e-14
    vertex -88.9167963721942 -51.36497376665727 2.8199664825478975e-15
  endloop
endfacet
facet normal -3.4781357316491015e-18 -1.3645080631989698e-16 -1.0
  outer loop
    vertex -88.9167963721942 -51.36497376665727 2.8199664825478975e-15
    vertex -88.01679637219421 -52.894267349603666 1.127986593019159e-14
    vertex -90.42860592116901 -53.89327157464996 2.8199664825478975e-15
  endloop
endfacet
facet normal -3.4781357316491015e-18 -1.3645080631989698e-16 -1.0
  outer loop
    vertex -88.9167963721942 -51.36497376665727 2.8199664825478975e-15
    vertex -90.42860592116901 -53.89327157464996 2.8199664825478975e-15
    vertex -90.89448020235355 -52.18016121429504 2.8199664825478975e-15
  endloop
endfacet
facet normal -3.4781357316491015e-18 -1.3645080631989698e-16 -1.0
  outer loop
    vertex -90.89448020235355 -52.18016121429504 2.8199664825478975e-15
    vertex -90.42860592116901 -53.89327157464996 2.8199664825478975e-15
    vertex -93.01679637219421 -54.23401331175928 2.8199664825478975e-15
  endloop
endfacet
facet normal -3.4781357316491015e-18 -1.3645080631989698e-16 -1.0
  outer loop
    vertex -90.89448020235355 -52.18016121429504 2.8199664825478975e-15
    vertex -93.01679637219421 -54.23401331175928 2.8199664825478975e-15
    vertex -93.0167963721942 -52.45820647177626 2.8199664825478975e-15
  endloop
endfacet
facet normal -3.4781357316491015e-18 -1.3645080631989698e-16 -1.0
  outer loop
    vertex -93.0167963721942 -52.45820647177626 2.8199664825478975e-15
    vertex -93.01679637219421 -54.23401331175928 2.8199664825478975e-15
    vertex -95.13911254203488 -52.18016121429504 2.8199664825478975e-15
  endloop
endfacet
facet normal -3.4781357316491015e-18 -1.3645080631989698e-16 -1.0
  outer loop
    vertex -95.13911254203488 -52.18016121429504 2.8199664825478975e-15
    vertex -93.01679637219421 -54.23401331175928 2.8199664825478975e-15
    vertex -95.6049868232194 -53.89327157464996 2.8199664825478975e-15
  endloop
endfacet
facet normal -3.4781357316491015e-18 -1.3645080631989698e-16 -1.0
  outer loop
    vertex -95.13911254203488 -52.18016121429504 2.8199664825478975e-15
    vertex -95.6049868232194 -53.89327157464996 2.8199664825478975e-15
    vertex -97.11679637219422 -51.36497376665727 2.8199664825478975e-15
  endloop
endfacet
facet normal -3.4781357316491015e-18 -1.3645080631989698e-16 -1.0
  outer loop
    vertex -97.11679637219422 -51.36497376665727 2.8199664825478975e-15
    vertex -95.6049868232194 -53.89327157464996 2.8199664825478975e-15
    vertex -98.01679637219421 -52.894267349603666 1.127986593019159e-14
  endloop
endfacet
facet normal -3.4781357316491015e-18 -1.3645080631989698e-16 -1.0
  outer loop
    vertex -97.11679637219422 -51.36497376665727 2.8199664825478975e-15
    vertex -98.01679637219421 -52.894267349603666 1.127986593019159e-14
    vertex -98.8150719779239 -50.068197806258475 2.8199664825478975e-15
  endloop
endfacet
facet normal -3.4781357316491015e-18 -1.3645080631989698e-16 -1.0
  outer loop
    vertex -98.8150719779239 -50.068197806258475 2.8199664825478975e-15
    vertex -98.01679637219421 -52.894267349603666 1.127986593019159e-14
    vertex -100.08786418405968 -51.30508112362475 2.8199664825478975e-15
  endloop
endfacet
facet normal -3.4781357316491015e-18 -1.3645080631989698e-16 -1.0
  outer loop
    vertex -98.8150719779239 -50.068197806258475 2.8199664825478975e-15
    vertex -100.08786418405968 -51.30508112362475 2.8199664825478975e-15
    vertex -99.16679637219421 -49.612057632641424 2.8199664825478975e-15
  endloop
endfacet
facet normal -3.4781357316491015e-18 -1.3645080631989698e-16 -1.0
  outer loop
    vertex -99.16679637219421 -49.612057632641424 2.8199664825478975e-15
    vertex -99.1667963721942 -41.02435531091107 2.8199664825478975e-15
    vertex -99.1667963721942 -45.31820647177625 8.459899447643692e-15
  endloop
endfacet
facet normal -3.4781357316491015e-18 -1.3645080631989698e-16 -1.0
  outer loop
    vertex -99.1667963721942 -41.02435531091107 2.8199664825478975e-15
    vertex -99.16679637219421 -49.612057632641424 2.8199664825478975e-15
    vertex -101.0167963721942 -45.02435531091107 2.8199664825478975e-15
  endloop
endfacet
facet normal -3.4781357316491015e-18 -1.3645080631989698e-16 -1.0
  outer loop
    vertex -99.1667963721942 -41.02435531091107 2.8199664825478975e-15
    vertex -101.0167963721942 -45.02435531091107 2.8199664825478975e-15
    vertex -102.01679637219421 -44.02435531091106 2.8199664825478975e-15
  endloop
endfacet
facet normal -3.4781357316491015e-18 -1.3645080631989698e-16 -1.0
  outer loop
    vertex -99.1667963721942 -41.02435531091107 2.8199664825478975e-15
    vertex -102.01679637219421 -44.02435531091106 2.8199664825478975e-15
    vertex -107.0167963721942 -41.02435531091107 2.8199664825478975e-15
  endloop
endfacet
facet normal -3.4781357316491015e-18 -1.3645080631989698e-16 -1.0
  outer loop
    vertex -101.0167963721942 -45.02435531091107 2.8199664825478975e-15
    vertex -99.16679637219421 -49.612057632641424 2.8199664825478975e-15
    vertex -100.08786418405968 -51.30508112362475 2.8199664825478975e-15
  endloop
endfacet
facet normal -3.4781357316491015e-18 -1.3645080631989698e-16 -1.0
  outer loop
    vertex -101.0167963721942 -45.02435531091107 2.8199664825478975e-15
    vertex -100.08786418405968 -51.30508112362475 2.8199664825478975e-15
    vertex -101.01679637219421 -50.09447312639893 1.127986593019159e-14
  endloop
endfacet
facet normal -3.4781357316491015e-18 -1.3645080631989698e-16 -1.0
  outer loop
    vertex -107.0167963721942 -41.02435531091107 2.8199664825478975e-15
    vertex -102.01679637219421 -44.02435531091106 2.8199664825478975e-15
    vertex -107.0167963721942 -44.02435531091106 2.8199664825478975e-15
  endloop
endfacet
facet normal -3.4781357316491015e-18 -1.3645080631989698e-16 -1.0
  outer loop
    vertex -84.01679637219421 -44.024355310911076 2.8199664825478975e-15
    vertex -79.01679637219421 -41.024355310911076 2.8199664825478975e-15
    vertex -79.01679637219421 -44.024355310911076 2.8199664825478975e-15
  endloop
endfacet
facet normal -3.4781357316491015e-18 -1.3645080631989698e-16 -1.0
  outer loop
    vertex -79.01679637219421 -41.024355310911076 2.8199664825478975e-15
    vertex -84.01679637219421 -44.024355310911076 2.8199664825478975e-15
    vertex -86.8667963721942 -41.02435531091107 2.8199664825478975e-15
  endloop
endfacet
facet normal -3.4781357316491015e-18 -1.3645080631989698e-16 -1.0
  outer loop
    vertex -86.8667963721942 -41.02435531091107 2.8199664825478975e-15
    vertex -84.01679637219421 -44.024355310911076 2.8199664825478975e-15
    vertex -85.0167963721942 -45.02435531091107 5.639932965095795e-15
  endloop
endfacet
facet normal -3.4781357316491015e-18 -1.3645080631989698e-16 -1.0
  outer loop
    vertex -86.8667963721942 -41.02435531091107 2.8199664825478975e-15
    vertex -85.0167963721942 -45.02435531091107 5.639932965095795e-15
    vertex -85.94572856032875 -51.30508112362475 2.8199664825478975e-15
  endloop
endfacet
facet normal -3.4781357316491015e-18 -1.3645080631989698e-16 -1.0
  outer loop
    vertex -86.8667963721942 -41.02435531091107 2.8199664825478975e-15
    vertex -85.94572856032875 -51.30508112362475 2.8199664825478975e-15
    vertex -86.8667963721942 -49.61205763264141 2.8199664825478975e-15
  endloop
endfacet
facet normal 1.284219132508371e-15 1.0 -6.302533551501815e-16
  outer loop
    vertex -107.0167963721942 -41.02435531091107 2.8199664825478975e-15
    vertex -104.27561541729673 -41.024355310911055 2.0340741737109336
    vertex -99.1667963721942 -41.02435531091107 2.8199664825478975e-15
  endloop
endfacet
facet normal 1.284219132508371e-15 1.0 -6.302533551501815e-16
  outer loop
    vertex -104.27561541729673 -41.024355310911055 2.0340741737109336
    vertex -107.0167963721942 -41.02435531091107 2.8199664825478975e-15
    vertex -104.51679637219422 -41.024355310911055 2.133974596215561
  endloop
endfacet
facet normal 1.284219132508371e-15 1.0 -6.302533551501815e-16
  outer loop
    vertex -104.51679637219422 -41.024355310911055 2.133974596215561
    vertex -107.0167963721942 -41.02435531091107 2.8199664825478975e-15
    vertex -104.72390315338075 -41.024355310911055 2.292893218813454
  endloop
endfacet
facet normal 1.284219132508371e-15 1.0 -6.302533551501815e-16
  outer loop
    vertex -104.72390315338075 -41.024355310911055 2.292893218813454
    vertex -107.0167963721942 -41.02435531091107 2.8199664825478975e-15
    vertex -104.88282177597866 -41.024355310911055 2.500000000000001
  endloop
endfacet
facet normal 1.284219132508371e-15 1.0 -6.302533551501815e-16
  outer loop
    vertex -104.88282177597866 -41.024355310911055 2.500000000000001
    vertex -107.0167963721942 -41.02435531091107 2.8199664825478975e-15
    vertex -107.0167963721942 -41.024355310911055 6.0
  endloop
endfacet
facet normal 1.284219132508371e-15 1.0 -6.302533551501815e-16
  outer loop
    vertex -99.1667963721942 -41.02435531091107 2.8199664825478975e-15
    vertex -104.27561541729673 -41.024355310911055 2.0340741737109336
    vertex -104.0167963721942 -41.024355310911055 1.9999999999999991
  endloop
endfacet
facet normal 1.284219132508371e-15 1.0 -6.302533551501815e-16
  outer loop
    vertex -104.88282177597866 -41.024355310911055 2.500000000000001
    vertex -107.0167963721942 -41.024355310911055 6.0
    vertex -104.98272219848329 -41.024355310911055 2.74118095489748
  endloop
endfacet
facet normal 1.284219132508371e-15 1.0 -6.302533551501815e-16
  outer loop
    vertex -104.98272219848329 -41.024355310911055 2.74118095489748
    vertex -107.0167963721942 -41.024355310911055 6.0
    vertex -105.01679637219422 -41.024355310911055 3.0
  endloop
endfacet
facet normal 1.284219132508371e-15 1.0 -6.302533551501815e-16
  outer loop
    vertex -105.01679637219422 -41.024355310911055 3.0
    vertex -107.0167963721942 -41.024355310911055 6.0
    vertex -104.98272219848329 -41.024355310911055 3.258819045102523
  endloop
endfacet
facet normal 1.284219132508371e-15 1.0 -6.302533551501815e-16
  outer loop
    vertex -104.98272219848329 -41.024355310911055 3.258819045102523
    vertex -107.0167963721942 -41.024355310911055 6.0
    vertex -104.88282177597866 -41.024355310911055 3.499999999999999
  endloop
endfacet
facet normal 1.284219132508371e-15 1.0 -6.302533551501815e-16
  outer loop
    vertex -104.88282177597866 -41.024355310911055 3.499999999999999
    vertex -107.0167963721942 -41.024355310911055 6.0
    vertex -104.72390315338075 -41.024355310911055 3.7071067811865492
  endloop
endfacet
facet normal 1.284219132508371e-15 1.0 -6.302533551501815e-16
  outer loop
    vertex -104.72390315338075 -41.024355310911055 3.7071067811865492
    vertex -107.0167963721942 -41.024355310911055 6.0
    vertex -104.51679637219422 -41.024355310911055 3.8660254037844393
  endloop
endfacet
facet normal 1.284219132508371e-15 1.0 -6.302533551501815e-16
  outer loop
    vertex -104.51679637219422 -41.024355310911055 3.8660254037844393
    vertex -107.0167963721942 -41.024355310911055 6.0
    vertex -104.27561541729673 -41.024355310911055 3.965925826289072
  endloop
endfacet
facet normal 1.284219132508371e-15 1.0 -6.302533551501815e-16
  outer loop
    vertex -104.27561541729673 -41.024355310911055 3.965925826289072
    vertex -107.0167963721942 -41.024355310911055 6.0
    vertex -104.0167963721942 -41.024355310911055 4.0000000000000036
  endloop
endfacet
facet normal 1.284219132508371e-15 1.0 -6.302533551501815e-16
  outer loop
    vertex -99.1667963721942 -41.02435531091107 2.8199664825478975e-15
    vertex -103.30968959100767 -41.02435531091106 2.292893218813454
    vertex -99.1667963721942 -41.02435531091107 6.0
  endloop
endfacet
facet normal 1.284219132508371e-15 1.0 -6.302533551501815e-16
  outer loop
    vertex -103.30968959100767 -41.02435531091106 2.292893218813454
    vertex -99.1667963721942 -41.02435531091107 2.8199664825478975e-15
    vertex -103.5167963721942 -41.02435531091106 2.133974596215561
  endloop
endfacet
facet normal 1.284219132508371e-15 1.0 -6.302533551501815e-16
  outer loop
    vertex -103.5167963721942 -41.02435531091106 2.133974596215561
    vertex -99.1667963721942 -41.02435531091107 2.8199664825478975e-15
    vertex -103.75797732709171 -41.02435531091106 2.0340741737109336
  endloop
endfacet
facet normal 1.284219132508371e-15 1.0 -6.302533551501815e-16
  outer loop
    vertex -103.75797732709171 -41.02435531091106 2.0340741737109336
    vertex -99.1667963721942 -41.02435531091107 2.8199664825478975e-15
    vertex -104.0167963721942 -41.024355310911055 1.9999999999999991
  endloop
endfacet
facet normal 1.284219132508371e-15 1.0 -6.302533551501815e-16
  outer loop
    vertex -99.1667963721942 -41.02435531091107 6.0
    vertex -103.30968959100767 -41.02435531091106 2.292893218813454
    vertex -103.15077096840976 -41.02435531091106 2.500000000000001
  endloop
endfacet
facet normal 1.284219132508371e-15 1.0 -6.302533551501815e-16
  outer loop
    vertex -99.1667963721942 -41.02435531091107 6.0
    vertex -103.15077096840976 -41.02435531091106 2.500000000000001
    vertex -103.05087054590514 -41.02435531091106 2.74118095489748
  endloop
endfacet
facet normal 1.284219132508371e-15 1.0 -6.302533551501815e-16
  outer loop
    vertex -99.1667963721942 -41.02435531091107 6.0
    vertex -103.05087054590514 -41.02435531091106 2.74118095489748
    vertex -103.0167963721942 -41.02435531091106 3.0
  endloop
endfacet
facet normal 1.284219132508371e-15 1.0 -6.302533551501815e-16
  outer loop
    vertex -99.1667963721942 -41.02435531091107 6.0
    vertex -103.0167963721942 -41.02435531091106 3.0
    vertex -103.05087054590514 -41.02435531091106 3.258819045102523
  endloop
endfacet
facet normal 1.284219132508371e-15 1.0 -6.302533551501815e-16
  outer loop
    vertex -99.1667963721942 -41.02435531091107 6.0
    vertex -103.05087054590514 -41.02435531091106 3.258819045102523
    vertex -103.15077096840976 -41.02435531091106 3.499999999999999
  endloop
endfacet
facet normal 1.284219132508371e-15 1.0 -6.302533551501815e-16
  outer loop
    vertex -99.1667963721942 -41.02435531091107 6.0
    vertex -103.15077096840976 -41.02435531091106 3.499999999999999
    vertex -103.30968959100767 -41.02435531091106 3.7071067811865492
  endloop
endfacet
facet normal 1.284219132508371e-15 1.0 -6.302533551501815e-16
  outer loop
    vertex -99.1667963721942 -41.02435531091107 6.0
    vertex -103.30968959100767 -41.02435531091106 3.7071067811865492
    vertex -103.5167963721942 -41.02435531091106 3.8660254037844393
  endloop
endfacet
facet normal 1.284219132508371e-15 1.0 -6.302533551501815e-16
  outer loop
    vertex -99.1667963721942 -41.02435531091107 6.0
    vertex -103.5167963721942 -41.02435531091106 3.8660254037844393
    vertex -103.75797732709171 -41.02435531091106 3.965925826289072
  endloop
endfacet
facet normal 1.284219132508371e-15 1.0 -6.302533551501815e-16
  outer loop
    vertex -99.1667963721942 -41.02435531091107 6.0
    vertex -103.75797732709171 -41.02435531091106 3.965925826289072
    vertex -104.0167963721942 -41.024355310911055 4.0000000000000036
  endloop
endfacet
facet normal 1.284219132508371e-15 1.0 -6.302533551501815e-16
  outer loop
    vertex -99.1667963721942 -41.02435531091107 6.0
    vertex -104.0167963721942 -41.024355310911055 4.0000000000000036
    vertex -107.0167963721942 -41.024355310911055 6.0
  endloop
endfacet
facet normal 5.77086513276389e-16 1.0 -6.797751298981584e-16
  outer loop
    vertex -86.8667963721942 -41.02435531091107 2.8199664825478975e-15
    vertex -82.5167963721942 -41.02435531091107 2.133974596215561
    vertex -79.01679637219421 -41.024355310911076 2.8199664825478975e-15
  endloop
endfacet
facet normal 5.77086513276389e-16 1.0 -6.797751298981584e-16
  outer loop
    vertex -82.5167963721942 -41.02435531091107 2.133974596215561
    vertex -86.8667963721942 -41.02435531091107 2.8199664825478975e-15
    vertex -82.72390315338075 -41.02435531091107 2.292893218813454
  endloop
endfacet
facet normal 5.77086513276389e-16 1.0 -6.797751298981584e-16
  outer loop
    vertex -82.72390315338075 -41.02435531091107 2.292893218813454
    vertex -86.8667963721942 -41.02435531091107 2.8199664825478975e-15
    vertex -86.8667963721942 -41.02435531091106 6.0
  endloop
endfacet
facet normal 5.77086513276389e-16 1.0 -6.797751298981584e-16
  outer loop
    vertex -79.01679637219421 -41.024355310911076 2.8199664825478975e-15
    vertex -82.5167963721942 -41.02435531091107 2.133974596215561
    vertex -82.27561541729672 -41.02435531091107 2.0340741737109336
  endloop
endfacet
facet normal 5.77086513276389e-16 1.0 -6.797751298981584e-16
  outer loop
    vertex -79.01679637219421 -41.024355310911076 2.8199664825478975e-15
    vertex -82.27561541729672 -41.02435531091107 2.0340741737109336
    vertex -82.0167963721942 -41.02435531091107 1.9999999999999991
  endloop
endfacet
facet normal 5.77086513276389e-16 1.0 -6.797751298981584e-16
  outer loop
    vertex -82.72390315338075 -41.02435531091107 2.292893218813454
    vertex -86.8667963721942 -41.02435531091106 6.0
    vertex -82.88282177597864 -41.02435531091107 2.500000000000001
  endloop
endfacet
facet normal 5.77086513276389e-16 1.0 -6.797751298981584e-16
  outer loop
    vertex -82.88282177597864 -41.02435531091107 2.500000000000001
    vertex -86.8667963721942 -41.02435531091106 6.0
    vertex -82.98272219848327 -41.02435531091107 2.74118095489748
  endloop
endfacet
facet normal 5.77086513276389e-16 1.0 -6.797751298981584e-16
  outer loop
    vertex -82.98272219848327 -41.02435531091107 2.74118095489748
    vertex -86.8667963721942 -41.02435531091106 6.0
    vertex -83.01679637219421 -41.02435531091107 3.0
  endloop
endfacet
facet normal 5.77086513276389e-16 1.0 -6.797751298981584e-16
  outer loop
    vertex -83.01679637219421 -41.02435531091107 3.0
    vertex -86.8667963721942 -41.02435531091106 6.0
    vertex -82.98272219848327 -41.02435531091107 3.258819045102523
  endloop
endfacet
facet normal 5.77086513276389e-16 1.0 -6.797751298981584e-16
  outer loop
    vertex -82.98272219848327 -41.02435531091107 3.258819045102523
    vertex -86.8667963721942 -41.02435531091106 6.0
    vertex -82.88282177597864 -41.02435531091107 3.499999999999999
  endloop
endfacet
facet normal 5.77086513276389e-16 1.0 -6.797751298981584e-16
  outer loop
    vertex -82.88282177597864 -41.02435531091107 3.499999999999999
    vertex -86.8667963721942 -41.02435531091106 6.0
    vertex -82.72390315338075 -41.02435531091107 3.7071067811865492
  endloop
endfacet
facet normal 5.77086513276389e-16 1.0 -6.797751298981584e-16
  outer loop
    vertex -82.72390315338075 -41.02435531091107 3.7071067811865492
    vertex -86.8667963721942 -41.02435531091106 6.0
    vertex -82.5167963721942 -41.02435531091107 3.8660254037844393
  endloop
endfacet
facet normal 5.77086513276389e-16 1.0 -6.797751298981584e-16
  outer loop
    vertex -82.5167963721942 -41.02435531091107 3.8660254037844393
    vertex -86.8667963721942 -41.02435531091106 6.0
    vertex -82.27561541729672 -41.02435531091107 3.965925826289072
  endloop
endfacet
facet normal 5.77086513276389e-16 1.0 -6.797751298981584e-16
  outer loop
    vertex -82.27561541729672 -41.02435531091107 3.965925826289072
    vertex -86.8667963721942 -41.02435531091106 6.0
    vertex -82.0167963721942 -41.02435531091107 4.0000000000000036
  endloop
endfacet
facet normal 5.77086513276389e-16 1.0 -6.797751298981584e-16
  outer loop
    vertex -79.01679637219421 -41.024355310911076 2.8199664825478975e-15
    vertex -81.15077096840976 -41.02435531091107 2.500000000000001
    vertex -79.01679637219421 -41.02435531091107 6.0
  endloop
endfacet
facet normal 5.77086513276389e-16 1.0 -6.797751298981584e-16
  outer loop
    vertex -81.15077096840976 -41.02435531091107 2.500000000000001
    vertex -79.01679637219421 -41.024355310911076 2.8199664825478975e-15
    vertex -81.30968959100765 -41.02435531091107 2.292893218813454
  endloop
endfacet
facet normal 5.77086513276389e-16 1.0 -6.797751298981584e-16
  outer loop
    vertex -81.30968959100765 -41.02435531091107 2.292893218813454
    vertex -79.01679637219421 -41.024355310911076 2.8199664825478975e-15
    vertex -81.51679637219421 -41.02435531091107 2.133974596215561
  endloop
endfacet
facet normal 5.77086513276389e-16 1.0 -6.797751298981584e-16
  outer loop
    vertex -81.51679637219421 -41.02435531091107 2.133974596215561
    vertex -79.01679637219421 -41.024355310911076 2.8199664825478975e-15
    vertex -81.75797732709168 -41.02435531091107 2.0340741737109336
  endloop
endfacet
facet normal 5.77086513276389e-16 1.0 -6.797751298981584e-16
  outer loop
    vertex -81.75797732709168 -41.02435531091107 2.0340741737109336
    vertex -79.01679637219421 -41.024355310911076 2.8199664825478975e-15
    vertex -82.0167963721942 -41.02435531091107 1.9999999999999991
  endloop
endfacet
facet normal 5.77086513276389e-16 1.0 -6.797751298981584e-16
  outer loop
    vertex -79.01679637219421 -41.02435531091107 6.0
    vertex -81.15077096840976 -41.02435531091107 2.500000000000001
    vertex -81.05087054590513 -41.02435531091107 2.74118095489748
  endloop
endfacet
facet normal 5.77086513276389e-16 1.0 -6.797751298981584e-16
  outer loop
    vertex -79.01679637219421 -41.02435531091107 6.0
    vertex -81.05087054590513 -41.02435531091107 2.74118095489748
    vertex -81.0167963721942 -41.02435531091107 3.0
  endloop
endfacet
facet normal 5.77086513276389e-16 1.0 -6.797751298981584e-16
  outer loop
    vertex -79.01679637219421 -41.02435531091107 6.0
    vertex -81.0167963721942 -41.02435531091107 3.0
    vertex -81.05087054590513 -41.02435531091107 3.258819045102523
  endloop
endfacet
facet normal 5.77086513276389e-16 1.0 -6.797751298981584e-16
  outer loop
    vertex -79.01679637219421 -41.02435531091107 6.0
    vertex -81.05087054590513 -41.02435531091107 3.258819045102523
    vertex -81.15077096840976 -41.02435531091107 3.499999999999999
  endloop
endfacet
facet normal 5.77086513276389e-16 1.0 -6.797751298981584e-16
  outer loop
    vertex -79.01679637219421 -41.02435531091107 6.0
    vertex -81.15077096840976 -41.02435531091107 3.499999999999999
    vertex -81.30968959100765 -41.02435531091107 3.7071067811865492
  endloop
endfacet
facet normal 5.77086513276389e-16 1.0 -6.797751298981584e-16
  outer loop
    vertex -79.01679637219421 -41.02435531091107 6.0
    vertex -81.30968959100765 -41.02435531091107 3.7071067811865492
    vertex -81.51679637219421 -41.02435531091107 3.8660254037844393
  endloop
endfacet
facet normal 5.77086513276389e-16 1.0 -6.797751298981584e-16
  outer loop
    vertex -79.01679637219421 -41.02435531091107 6.0
    vertex -81.51679637219421 -41.02435531091107 3.8660254037844393
    vertex -81.75797732709168 -41.02435531091107 3.965925826289072
  endloop
endfacet
facet normal 5.77086513276389e-16 1.0 -6.797751298981584e-16
  outer loop
    vertex -79.01679637219421 -41.02435531091107 6.0
    vertex -81.75797732709168 -41.02435531091107 3.965925826289072
    vertex -82.0167963721942 -41.02435531091107 4.0000000000000036
  endloop
endfacet
facet normal 5.77086513276389e-16 1.0 -6.797751298981584e-16
  outer loop
    vertex -79.01679637219421 -41.02435531091107 6.0
    vertex -82.0167963721942 -41.02435531091107 4.0000000000000036
    vertex -86.8667963721942 -41.02435531091106 6.0
  endloop
endfacet
endsolid Wolf Nipple Chips 1" chassis
