solid Albatross inches
facet normal -0.6087614290087195 -0.793353340291236 0.0
  outer loop
    vertex -255.93063595313834 -2.3393133541368223 1.05
    vertex -260.4973404783016 1.1648422741466746 0.0
    vertex -255.93063595313834 -2.3393133541368223 0.0
  endloop
endfacet
facet normal -0.6087614290087195 -0.793353340291236 0.0
  outer loop
    vertex -260.4973404783016 1.1648422741466746 0.0
    vertex -255.93063595313834 -2.3393133541368223 1.05
    vertex -260.4973404783016 1.1648422741466746 1.05
  endloop
endfacet
facet normal -0.7933533402912397 -0.6087614290087147 0.0
  outer loop
    vertex -264.00149610658514 5.731546799310052 1.05
    vertex -260.4973404783016 1.1648422741466746 0.0
    vertex -260.4973404783016 1.1648422741466746 1.05
  endloop
endfacet
facet normal -0.7933533402912397 -0.6087614290087147 0.0
  outer loop
    vertex -260.4973404783016 1.1648422741466746 0.0
    vertex -264.00149610658514 5.731546799310052 1.05
    vertex -264.00149610658514 5.731546799310052 0.0
  endloop
endfacet
facet normal -0.9238795325112841 -0.3826834323650965 0.0
  outer loop
    vertex -266.20430042281225 11.049586854799474 1.05
    vertex -264.00149610658514 5.731546799310052 0.0
    vertex -264.00149610658514 5.731546799310052 1.05
  endloop
endfacet
facet normal -0.9238795325112841 -0.3826834323650965 0.0
  outer loop
    vertex -264.00149610658514 5.731546799310052 0.0
    vertex -266.20430042281225 11.049586854799474 1.05
    vertex -266.20430042281225 11.049586854799474 0.0
  endloop
endfacet
facet normal -0.9914448613738108 -0.13052619222004763 0.0
  outer loop
    vertex -266.9556359531382 16.75654679931005 1.05
    vertex -266.20430042281225 11.049586854799474 0.0
    vertex -266.20430042281225 11.049586854799474 1.05
  endloop
endfacet
facet normal -0.9914448613738108 -0.13052619222004763 0.0
  outer loop
    vertex -266.20430042281225 11.049586854799474 0.0
    vertex -266.9556359531382 16.75654679931005 1.05
    vertex -266.9556359531382 16.75654679931005 0.0
  endloop
endfacet
facet normal -0.991444861373811 0.13052619222004735 0.0
  outer loop
    vertex -266.20430042281225 22.46350674382064 1.05
    vertex -266.9556359531382 16.75654679931005 0.0
    vertex -266.9556359531382 16.75654679931005 1.05
  endloop
endfacet
facet normal -0.991444861373811 0.13052619222004735 0.0
  outer loop
    vertex -266.9556359531382 16.75654679931005 0.0
    vertex -266.20430042281225 22.46350674382064 1.05
    vertex -266.20430042281225 22.46350674382064 0.0
  endloop
endfacet
facet normal -0.9238795325112841 0.382683432365096 0.0
  outer loop
    vertex -264.00149610658514 27.781546799310068 1.05
    vertex -266.20430042281225 22.46350674382064 0.0
    vertex -266.20430042281225 22.46350674382064 1.05
  endloop
endfacet
facet normal -0.9238795325112841 0.382683432365096 0.0
  outer loop
    vertex -266.20430042281225 22.46350674382064 0.0
    vertex -264.00149610658514 27.781546799310068 1.05
    vertex -264.00149610658514 27.781546799310068 0.0
  endloop
endfacet
facet normal -0.7933533402912345 0.6087614290087215 0.0
  outer loop
    vertex -260.49734047830157 32.348251324473416 1.05
    vertex -264.00149610658514 27.781546799310068 0.0
    vertex -264.00149610658514 27.781546799310068 1.05
  endloop
endfacet
facet normal -0.7933533402912345 0.6087614290087215 0.0
  outer loop
    vertex -264.00149610658514 27.781546799310068 0.0
    vertex -260.49734047830157 32.348251324473416 1.05
    vertex -260.49734047830157 32.348251324473416 0.0
  endloop
endfacet
facet normal -0.608761429008721 0.7933533402912348 0.0
  outer loop
    vertex -260.49734047830157 32.348251324473416 1.05
    vertex -255.93063595313828 35.852406952756944 0.0
    vertex -260.49734047830157 32.348251324473416 0.0
  endloop
endfacet
facet normal -0.608761429008721 0.7933533402912348 0.0
  outer loop
    vertex -255.93063595313828 35.852406952756944 0.0
    vertex -260.49734047830157 32.348251324473416 1.05
    vertex -255.93063595313828 35.852406952756944 1.05
  endloop
endfacet
facet normal -0.3826834323650902 0.9238795325112867 0.0
  outer loop
    vertex -255.93063595313828 35.852406952756944 1.05
    vertex -250.61259589764887 38.05521126898402 0.0
    vertex -255.93063595313828 35.852406952756944 0.0
  endloop
endfacet
facet normal -0.3826834323650902 0.9238795325112867 0.0
  outer loop
    vertex -250.61259589764887 38.05521126898402 0.0
    vertex -255.93063595313828 35.852406952756944 1.05
    vertex -250.61259589764887 38.05521126898402 1.05
  endloop
endfacet
facet normal -0.13052619222005188 0.9914448613738104 0.0
  outer loop
    vertex -250.61259589764887 38.05521126898402 1.05
    vertex -244.90563595313824 38.806546799310055 0.0
    vertex -250.61259589764887 38.05521126898402 0.0
  endloop
endfacet
facet normal -0.13052619222005188 0.9914448613738104 0.0
  outer loop
    vertex -244.90563595313824 38.806546799310055 0.0
    vertex -250.61259589764887 38.05521126898402 1.05
    vertex -244.90563595313824 38.806546799310055 1.05
  endloop
endfacet
facet normal 0.13052619222005188 0.9914448613738104 0.0
  outer loop
    vertex -244.90563595313824 38.806546799310055 1.05
    vertex -239.19867600862764 38.05521126898402 0.0
    vertex -244.90563595313824 38.806546799310055 0.0
  endloop
endfacet
facet normal 0.13052619222005188 0.9914448613738104 0.0
  outer loop
    vertex -239.19867600862764 38.05521126898402 0.0
    vertex -244.90563595313824 38.806546799310055 1.05
    vertex -239.19867600862764 38.05521126898402 1.05
  endloop
endfacet
facet normal 0.38268343236508723 0.9238795325112877 0.0
  outer loop
    vertex -239.19867600862764 38.05521126898402 1.05
    vertex -233.88063595313818 35.852406952756944 0.0
    vertex -239.19867600862764 38.05521126898402 0.0
  endloop
endfacet
facet normal 0.38268343236508723 0.9238795325112877 0.0
  outer loop
    vertex -233.88063595313818 35.852406952756944 0.0
    vertex -239.19867600862764 38.05521126898402 1.05
    vertex -233.88063595313818 35.852406952756944 1.05
  endloop
endfacet
facet normal 0.6087614290087252 0.7933533402912316 0.0
  outer loop
    vertex -233.88063595313818 35.852406952756944 1.05
    vertex -229.3139314279749 32.348251324473416 0.0
    vertex -233.88063595313818 35.852406952756944 0.0
  endloop
endfacet
facet normal 0.6087614290087252 0.7933533402912316 0.0
  outer loop
    vertex -229.3139314279749 32.348251324473416 0.0
    vertex -233.88063595313818 35.852406952756944 1.05
    vertex -229.3139314279749 32.348251324473416 1.05
  endloop
endfacet
facet normal 0.7933533402912352 0.6087614290087205 0.0
  outer loop
    vertex -229.3139314279749 32.348251324473416 0.0
    vertex -225.8097757996914 27.781546799310053 1.05
    vertex -225.8097757996914 27.781546799310053 0.0
  endloop
endfacet
facet normal 0.7933533402912352 0.6087614290087205 0.0
  outer loop
    vertex -225.8097757996914 27.781546799310053 1.05
    vertex -229.3139314279749 32.348251324473416 0.0
    vertex -229.3139314279749 32.348251324473416 1.05
  endloop
endfacet
facet normal 0.9238795325112839 0.38268343236509683 0.0
  outer loop
    vertex -225.8097757996914 27.781546799310053 0.0
    vertex -223.6069714834643 22.46350674382064 1.05
    vertex -223.6069714834643 22.46350674382064 0.0
  endloop
endfacet
facet normal 0.9238795325112839 0.38268343236509683 0.0
  outer loop
    vertex -223.6069714834643 22.46350674382064 1.05
    vertex -225.8097757996914 27.781546799310053 0.0
    vertex -225.8097757996914 27.781546799310053 1.05
  endloop
endfacet
facet normal 0.991444861373811 0.13052619222004735 0.0
  outer loop
    vertex -223.6069714834643 22.46350674382064 0.0
    vertex -222.85563595313826 16.75654679931005 1.05
    vertex -222.85563595313826 16.75654679931005 0.0
  endloop
endfacet
facet normal 0.991444861373811 0.13052619222004735 0.0
  outer loop
    vertex -222.85563595313826 16.75654679931005 1.05
    vertex -223.6069714834643 22.46350674382064 0.0
    vertex -223.6069714834643 22.46350674382064 1.05
  endloop
endfacet
facet normal 0.9914448613738099 -0.13052619222005554 0.0
  outer loop
    vertex -222.85563595313826 16.75654679931005 0.0
    vertex -223.60697148346435 11.049586854799452 1.05
    vertex -223.60697148346435 11.049586854799452 0.0
  endloop
endfacet
facet normal 0.9914448613738099 -0.13052619222005554 0.0
  outer loop
    vertex -223.60697148346435 11.049586854799452 1.05
    vertex -222.85563595313826 16.75654679931005 0.0
    vertex -222.85563595313826 16.75654679931005 1.05
  endloop
endfacet
facet normal 0.9238795325112868 -0.38268343236508945 0.0
  outer loop
    vertex -223.60697148346435 11.049586854799452 0.0
    vertex -225.8097757996914 5.731546799310035 1.05
    vertex -225.8097757996914 5.731546799310035 0.0
  endloop
endfacet
facet normal 0.9238795325112868 -0.38268343236508945 0.0
  outer loop
    vertex -225.8097757996914 5.731546799310035 1.05
    vertex -223.60697148346435 11.049586854799452 0.0
    vertex -223.60697148346435 11.049586854799452 1.05
  endloop
endfacet
facet normal 0.7933533402912352 -0.6087614290087205 0.0
  outer loop
    vertex -225.8097757996914 5.731546799310035 0.0
    vertex -229.3139314279749 1.1648422741466626 1.05
    vertex -229.3139314279749 1.1648422741466626 0.0
  endloop
endfacet
facet normal 0.7933533402912352 -0.6087614290087205 0.0
  outer loop
    vertex -229.3139314279749 1.1648422741466626 1.05
    vertex -225.8097757996914 5.731546799310035 0.0
    vertex -225.8097757996914 5.731546799310035 1.05
  endloop
endfacet
facet normal 0.6087614290087203 -0.7933533402912355 0.0
  outer loop
    vertex -229.3139314279749 1.1648422741466626 1.05
    vertex -233.88063595313824 -2.3393133541368414 0.0
    vertex -229.3139314279749 1.1648422741466626 0.0
  endloop
endfacet
facet normal 0.6087614290087203 -0.7933533402912355 0.0
  outer loop
    vertex -233.88063595313824 -2.3393133541368414 0.0
    vertex -229.3139314279749 1.1648422741466626 1.05
    vertex -233.88063595313824 -2.3393133541368414 1.05
  endloop
endfacet
facet normal 0.38268343236508934 -0.923879532511287 0.0
  outer loop
    vertex -233.88063595313824 -2.3393133541368414 1.05
    vertex -239.19867600862764 -4.542117670363915 0.0
    vertex -233.88063595313824 -2.3393133541368414 0.0
  endloop
endfacet
facet normal 0.38268343236508934 -0.923879532511287 0.0
  outer loop
    vertex -239.19867600862764 -4.542117670363915 0.0
    vertex -233.88063595313824 -2.3393133541368414 1.05
    vertex -239.19867600862764 -4.542117670363915 1.05
  endloop
endfacet
facet normal 0.13052619222005188 -0.9914448613738104 0.0
  outer loop
    vertex -239.19867600862764 -4.542117670363915 1.05
    vertex -244.90563595313824 -5.293453200689961 0.0
    vertex -239.19867600862764 -4.542117670363915 0.0
  endloop
endfacet
facet normal 0.13052619222005188 -0.9914448613738104 0.0
  outer loop
    vertex -244.90563595313824 -5.293453200689961 0.0
    vertex -239.19867600862764 -4.542117670363915 1.05
    vertex -244.90563595313824 -5.293453200689961 1.05
  endloop
endfacet
facet normal -0.13052619222005188 -0.9914448613738104 0.0
  outer loop
    vertex -244.90563595313824 -5.293453200689961 1.05
    vertex -250.61259589764887 -4.542117670363915 0.0
    vertex -244.90563595313824 -5.293453200689961 0.0
  endloop
endfacet
facet normal -0.13052619222005188 -0.9914448613738104 0.0
  outer loop
    vertex -250.61259589764887 -4.542117670363915 0.0
    vertex -244.90563595313824 -5.293453200689961 1.05
    vertex -250.61259589764887 -4.542117670363915 1.05
  endloop
endfacet
facet normal -0.3826834323650891 -0.923879532511287 0.0
  outer loop
    vertex -250.61259589764887 -4.542117670363915 1.05
    vertex -255.93063595313834 -2.3393133541368223 0.0
    vertex -250.61259589764887 -4.542117670363915 0.0
  endloop
endfacet
facet normal -0.3826834323650891 -0.923879532511287 0.0
  outer loop
    vertex -255.93063595313834 -2.3393133541368223 0.0
    vertex -250.61259589764887 -4.542117670363915 1.05
    vertex -255.93063595313834 -2.3393133541368223 1.05
  endloop
endfacet
facet normal 0.9238795325112875 0.3826834323650882 0.0
  outer loop
    vertex -262.4770341406193 12.048304845088822 0.0
    vertex -260.65972057973187 7.660921799310055 3.15
    vertex -260.65972057973187 7.660921799310055 0.0
  endloop
endfacet
facet normal 0.9238795325112875 0.3826834323650882 0.0
  outer loop
    vertex -260.65972057973187 7.660921799310055 3.15
    vertex -262.4770341406193 12.048304845088822 0.0
    vertex -262.4770341406193 12.048304845088822 3.15
  endloop
endfacet
facet normal -0.9238795325112836 0.3826834323650972 0.0
  outer loop
    vertex -227.33423776565724 12.048304845088806 3.15
    vertex -229.15155132654462 7.660921799310042 0.0
    vertex -229.15155132654462 7.660921799310042 3.15
  endloop
endfacet
facet normal -0.9238795325112836 0.3826834323650972 0.0
  outer loop
    vertex -229.15155132654462 7.660921799310042 0.0
    vertex -227.33423776565724 12.048304845088806 3.15
    vertex -227.33423776565724 12.048304845088806 0.0
  endloop
endfacet
facet normal -0.13052619222005096 -0.9914448613738106 0.0
  outer loop
    vertex -240.19739399891705 34.32794498679107 3.15
    vertex -244.90563595313824 34.94779679931005 0.0
    vertex -240.19739399891705 34.32794498679107 0.0
  endloop
endfacet
facet normal -0.13052619222005096 -0.9914448613738106 0.0
  outer loop
    vertex -244.90563595313824 34.94779679931005 0.0
    vertex -240.19739399891705 34.32794498679107 3.15
    vertex -244.90563595313824 34.94779679931005 3.15
  endloop
endfacet
facet normal 0.991444861373811 -0.13052619222004608 0.0
  outer loop
    vertex -262.4770341406193 21.464788753531288 0.0
    vertex -263.09688595313827 16.756546799310048 3.15
    vertex -263.09688595313827 16.756546799310048 0.0
  endloop
endfacet
facet normal 0.991444861373811 -0.13052619222004608 0.0
  outer loop
    vertex -263.09688595313827 16.756546799310048 3.15
    vertex -262.4770341406193 21.464788753531288 0.0
    vertex -262.4770341406193 21.464788753531288 3.15
  endloop
endfacet
facet normal -0.793353340291238 0.608761429008717 0.0
  outer loop
    vertex -229.15155132654462 7.660921799310042 3.15
    vertex -232.04247971987846 3.8933905660502632 0.0
    vertex -232.04247971987846 3.8933905660502632 3.15
  endloop
endfacet
facet normal -0.793353340291238 0.608761429008717 0.0
  outer loop
    vertex -232.04247971987846 3.8933905660502632 0.0
    vertex -229.15155132654462 7.660921799310042 3.15
    vertex -229.15155132654462 7.660921799310042 0.0
  endloop
endfacet
facet normal 0.991444861373811 0.13052619222004638 0.0
  outer loop
    vertex -263.09688595313827 16.756546799310048 0.0
    vertex -262.4770341406193 12.048304845088822 3.15
    vertex -262.4770341406193 12.048304845088822 0.0
  endloop
endfacet
facet normal 0.991444861373811 0.13052619222004638 0.0
  outer loop
    vertex -262.4770341406193 12.048304845088822 3.15
    vertex -263.09688595313827 16.756546799310048 0.0
    vertex -263.09688595313827 16.756546799310048 3.15
  endloop
endfacet
facet normal -0.6087614290087198 0.7933533402912358 0.0
  outer loop
    vertex -235.8100109531383 1.0024621727163723 3.15
    vertex -232.04247971987846 3.8933905660502632 0.0
    vertex -235.8100109531383 1.0024621727163723 0.0
  endloop
endfacet
facet normal -0.6087614290087198 0.7933533402912358 0.0
  outer loop
    vertex -232.04247971987846 3.8933905660502632 0.0
    vertex -235.8100109531383 1.0024621727163723 3.15
    vertex -232.04247971987846 3.8933905660502632 3.15
  endloop
endfacet
facet normal 0.6087614290087198 -0.7933533402912358 0.0
  outer loop
    vertex -254.00126095313823 32.510631425903725 3.15
    vertex -257.768792186398 29.61970303256983 0.0
    vertex -254.00126095313823 32.510631425903725 0.0
  endloop
endfacet
facet normal 0.6087614290087198 -0.7933533402912358 0.0
  outer loop
    vertex -257.768792186398 29.61970303256983 0.0
    vertex -254.00126095313823 32.510631425903725 3.15
    vertex -257.768792186398 29.61970303256983 3.15
  endloop
endfacet
facet normal 0.7933533402912375 -0.6087614290087173 0.0
  outer loop
    vertex -257.768792186398 29.61970303256983 0.0
    vertex -260.65972057973187 25.852171799310057 3.15
    vertex -260.65972057973187 25.852171799310057 0.0
  endloop
endfacet
facet normal 0.7933533402912375 -0.6087614290087173 0.0
  outer loop
    vertex -260.65972057973187 25.852171799310057 3.15
    vertex -257.768792186398 29.61970303256983 0.0
    vertex -257.768792186398 29.61970303256983 3.15
  endloop
endfacet
facet normal 0.7933533402912332 0.6087614290087231 0.0
  outer loop
    vertex -260.65972057973187 7.660921799310055 0.0
    vertex -257.768792186398 3.8933905660502743 3.15
    vertex -257.768792186398 3.8933905660502743 0.0
  endloop
endfacet
facet normal 0.7933533402912332 0.6087614290087231 0.0
  outer loop
    vertex -257.768792186398 3.8933905660502743 3.15
    vertex -260.65972057973187 7.660921799310055 0.0
    vertex -260.65972057973187 7.660921799310055 3.15
  endloop
endfacet
facet normal 0.3826834323650903 0.9238795325112866 0.0
  outer loop
    vertex -254.00126095313823 1.0024621727163843 3.15
    vertex -249.61387790735947 -0.814851388170957 0.0
    vertex -254.00126095313823 1.0024621727163843 0.0
  endloop
endfacet
facet normal 0.3826834323650903 0.9238795325112866 0.0
  outer loop
    vertex -249.61387790735947 -0.814851388170957 0.0
    vertex -254.00126095313823 1.0024621727163843 3.15
    vertex -249.61387790735947 -0.814851388170957 3.15
  endloop
endfacet
facet normal 0.6087614290087198 0.7933533402912358 0.0
  outer loop
    vertex -257.768792186398 3.8933905660502743 3.15
    vertex -254.00126095313823 1.0024621727163843 0.0
    vertex -257.768792186398 3.8933905660502743 0.0
  endloop
endfacet
facet normal 0.6087614290087198 0.7933533402912358 0.0
  outer loop
    vertex -254.00126095313823 1.0024621727163843 0.0
    vertex -257.768792186398 3.8933905660502743 3.15
    vertex -254.00126095313823 1.0024621727163843 3.15
  endloop
endfacet
facet normal 0.9238795325112839 -0.3826834323650968 0.0
  outer loop
    vertex -260.65972057973187 25.852171799310057 0.0
    vertex -262.4770341406193 21.464788753531288 3.15
    vertex -262.4770341406193 21.464788753531288 0.0
  endloop
endfacet
facet normal 0.9238795325112839 -0.3826834323650968 0.0
  outer loop
    vertex -262.4770341406193 21.464788753531288 3.15
    vertex -260.65972057973187 25.852171799310057 0.0
    vertex -260.65972057973187 25.852171799310057 3.15
  endloop
endfacet
facet normal 0.3826834323650912 -0.9238795325112861 0.0
  outer loop
    vertex -249.61387790735947 34.32794498679107 3.15
    vertex -254.00126095313823 32.510631425903725 0.0
    vertex -249.61387790735947 34.32794498679107 0.0
  endloop
endfacet
facet normal 0.3826834323650912 -0.9238795325112861 0.0
  outer loop
    vertex -254.00126095313823 32.510631425903725 0.0
    vertex -249.61387790735947 34.32794498679107 3.15
    vertex -254.00126095313823 32.510631425903725 3.15
  endloop
endfacet
facet normal 0.13052619222005338 0.9914448613738102 0.0
  outer loop
    vertex -249.61387790735947 -0.814851388170957 3.15
    vertex -244.90563595313824 -1.434703200689953 0.0
    vertex -249.61387790735947 -0.814851388170957 0.0
  endloop
endfacet
facet normal 0.13052619222005338 0.9914448613738102 0.0
  outer loop
    vertex -244.90563595313824 -1.434703200689953 0.0
    vertex -249.61387790735947 -0.814851388170957 3.15
    vertex -244.90563595313824 -1.434703200689953 3.15
  endloop
endfacet
facet normal 0.130526192220051 -0.9914448613738106 0.0
  outer loop
    vertex -244.90563595313824 34.94779679931005 3.15
    vertex -249.61387790735947 34.32794498679107 0.0
    vertex -244.90563595313824 34.94779679931005 0.0
  endloop
endfacet
facet normal 0.130526192220051 -0.9914448613738106 0.0
  outer loop
    vertex -249.61387790735947 34.32794498679107 0.0
    vertex -244.90563595313824 34.94779679931005 3.15
    vertex -249.61387790735947 34.32794498679107 3.15
  endloop
endfacet
facet normal -0.3826834323650912 -0.9238795325112861 0.0
  outer loop
    vertex -235.8100109531383 32.510631425903725 3.15
    vertex -240.19739399891705 34.32794498679107 0.0
    vertex -235.8100109531383 32.510631425903725 0.0
  endloop
endfacet
facet normal -0.3826834323650912 -0.9238795325112861 0.0
  outer loop
    vertex -240.19739399891705 34.32794498679107 0.0
    vertex -235.8100109531383 32.510631425903725 3.15
    vertex -240.19739399891705 34.32794498679107 3.15
  endloop
endfacet
facet normal -0.13052619222005096 0.9914448613738106 0.0
  outer loop
    vertex -244.90563595313824 -1.434703200689953 3.15
    vertex -240.19739399891705 -0.814851388170969 0.0
    vertex -244.90563595313824 -1.434703200689953 0.0
  endloop
endfacet
facet normal -0.13052619222005096 0.9914448613738106 0.0
  outer loop
    vertex -240.19739399891705 -0.814851388170969 0.0
    vertex -244.90563595313824 -1.434703200689953 3.15
    vertex -240.19739399891705 -0.814851388170969 3.15
  endloop
endfacet
facet normal -0.3826834323650903 0.9238795325112866 0.0
  outer loop
    vertex -240.19739399891705 -0.814851388170969 3.15
    vertex -235.8100109531383 1.0024621727163723 0.0
    vertex -240.19739399891705 -0.814851388170969 0.0
  endloop
endfacet
facet normal -0.3826834323650903 0.9238795325112866 0.0
  outer loop
    vertex -235.8100109531383 1.0024621727163723 0.0
    vertex -240.19739399891705 -0.814851388170969 3.15
    vertex -235.8100109531383 1.0024621727163723 3.15
  endloop
endfacet
facet normal -0.9914448613738113 0.13052619222004594 0.0
  outer loop
    vertex -226.71438595313828 16.756546799310048 3.15
    vertex -227.33423776565724 12.048304845088806 0.0
    vertex -227.33423776565724 12.048304845088806 3.15
  endloop
endfacet
facet normal -0.9914448613738113 0.13052619222004594 0.0
  outer loop
    vertex -227.33423776565724 12.048304845088806 0.0
    vertex -226.71438595313828 16.756546799310048 3.15
    vertex -226.71438595313828 16.756546799310048 0.0
  endloop
endfacet
facet normal -0.991444861373811 -0.13052619222004638 0.0
  outer loop
    vertex -227.33423776565724 21.46478875353127 3.15
    vertex -226.71438595313828 16.756546799310048 0.0
    vertex -226.71438595313828 16.756546799310048 3.15
  endloop
endfacet
facet normal -0.991444861373811 -0.13052619222004638 0.0
  outer loop
    vertex -226.71438595313828 16.756546799310048 0.0
    vertex -227.33423776565724 21.46478875353127 3.15
    vertex -227.33423776565724 21.46478875353127 0.0
  endloop
endfacet
facet normal -0.9238795325112875 -0.3826834323650882 0.0
  outer loop
    vertex -229.15155132654456 25.85217179931004 3.15
    vertex -227.33423776565724 21.46478875353127 0.0
    vertex -227.33423776565724 21.46478875353127 3.15
  endloop
endfacet
facet normal -0.9238795325112875 -0.3826834323650882 0.0
  outer loop
    vertex -227.33423776565724 21.46478875353127 0.0
    vertex -229.15155132654456 25.85217179931004 3.15
    vertex -229.15155132654456 25.85217179931004 0.0
  endloop
endfacet
facet normal -0.7933533402912336 -0.6087614290087225 0.0
  outer loop
    vertex -232.04247971987846 29.61970303256983 3.15
    vertex -229.15155132654456 25.85217179931004 0.0
    vertex -229.15155132654456 25.85217179931004 3.15
  endloop
endfacet
facet normal -0.7933533402912336 -0.6087614290087225 0.0
  outer loop
    vertex -229.15155132654456 25.85217179931004 0.0
    vertex -232.04247971987846 29.61970303256983 3.15
    vertex -232.04247971987846 29.61970303256983 0.0
  endloop
endfacet
facet normal -0.6087614290087198 -0.7933533402912358 0.0
  outer loop
    vertex -232.04247971987846 29.61970303256983 3.15
    vertex -235.8100109531383 32.510631425903725 0.0
    vertex -232.04247971987846 29.61970303256983 0.0
  endloop
endfacet
facet normal -0.6087614290087198 -0.7933533402912358 0.0
  outer loop
    vertex -235.8100109531383 32.510631425903725 0.0
    vertex -232.04247971987846 29.61970303256983 3.15
    vertex -235.8100109531383 32.510631425903725 3.15
  endloop
endfacet
facet normal 0.0 0.0 -1.0
  outer loop
    vertex -266.20430042281225 22.46350674382064 0.0
    vertex -266.20430042281225 11.049586854799474 0.0
    vertex -266.9556359531382 16.75654679931005 0.0
  endloop
endfacet
facet normal 0.0 0.0 -1.0
  outer loop
    vertex -266.20430042281225 11.049586854799474 0.0
    vertex -266.20430042281225 22.46350674382064 0.0
    vertex -264.00149610658514 27.781546799310068 0.0
  endloop
endfacet
facet normal 0.0 0.0 -1.0
  outer loop
    vertex -266.20430042281225 11.049586854799474 0.0
    vertex -264.00149610658514 27.781546799310068 0.0
    vertex -264.00149610658514 5.731546799310052 0.0
  endloop
endfacet
facet normal 0.0 0.0 -1.0
  outer loop
    vertex -264.00149610658514 5.731546799310052 0.0
    vertex -264.00149610658514 27.781546799310068 0.0
    vertex -263.09688595313827 16.756546799310048 0.0
  endloop
endfacet
facet normal 0.0 0.0 -1.0
  outer loop
    vertex -263.09688595313827 16.756546799310048 0.0
    vertex -264.00149610658514 27.781546799310068 0.0
    vertex -262.4770341406193 21.464788753531288 0.0
  endloop
endfacet
facet normal 0.0 0.0 -1.0
  outer loop
    vertex -262.4770341406193 21.464788753531288 0.0
    vertex -264.00149610658514 27.781546799310068 0.0
    vertex -260.49734047830157 32.348251324473416 0.0
  endloop
endfacet
facet normal 0.0 0.0 -1.0
  outer loop
    vertex -262.4770341406193 21.464788753531288 0.0
    vertex -260.49734047830157 32.348251324473416 0.0
    vertex -260.65972057973187 25.852171799310057 0.0
  endloop
endfacet
facet normal 0.0 0.0 -1.0
  outer loop
    vertex -260.65972057973187 25.852171799310057 0.0
    vertex -260.49734047830157 32.348251324473416 0.0
    vertex -257.768792186398 29.61970303256983 0.0
  endloop
endfacet
facet normal 0.0 0.0 -1.0
  outer loop
    vertex -257.768792186398 29.61970303256983 0.0
    vertex -260.49734047830157 32.348251324473416 0.0
    vertex -255.93063595313828 35.852406952756944 0.0
  endloop
endfacet
facet normal 0.0 0.0 -1.0
  outer loop
    vertex -257.768792186398 29.61970303256983 0.0
    vertex -255.93063595313828 35.852406952756944 0.0
    vertex -254.00126095313823 32.510631425903725 0.0
  endloop
endfacet
facet normal 0.0 0.0 -1.0
  outer loop
    vertex -254.00126095313823 32.510631425903725 0.0
    vertex -255.93063595313828 35.852406952756944 0.0
    vertex -250.61259589764887 38.05521126898402 0.0
  endloop
endfacet
facet normal 0.0 0.0 -1.0
  outer loop
    vertex -254.00126095313823 32.510631425903725 0.0
    vertex -250.61259589764887 38.05521126898402 0.0
    vertex -249.61387790735947 34.32794498679107 0.0
  endloop
endfacet
facet normal 0.0 0.0 -1.0
  outer loop
    vertex -249.61387790735947 34.32794498679107 0.0
    vertex -250.61259589764887 38.05521126898402 0.0
    vertex -244.90563595313824 38.806546799310055 0.0
  endloop
endfacet
facet normal 0.0 0.0 -1.0
  outer loop
    vertex -249.61387790735947 34.32794498679107 0.0
    vertex -244.90563595313824 38.806546799310055 0.0
    vertex -244.90563595313824 34.94779679931005 0.0
  endloop
endfacet
facet normal 0.0 0.0 -1.0
  outer loop
    vertex -244.90563595313824 34.94779679931005 0.0
    vertex -244.90563595313824 38.806546799310055 0.0
    vertex -239.19867600862764 38.05521126898402 0.0
  endloop
endfacet
facet normal 0.0 0.0 -1.0
  outer loop
    vertex -244.90563595313824 34.94779679931005 0.0
    vertex -239.19867600862764 38.05521126898402 0.0
    vertex -240.19739399891705 34.32794498679107 0.0
  endloop
endfacet
facet normal 0.0 0.0 -1.0
  outer loop
    vertex -240.19739399891705 34.32794498679107 0.0
    vertex -239.19867600862764 38.05521126898402 0.0
    vertex -235.8100109531383 32.510631425903725 0.0
  endloop
endfacet
facet normal 0.0 0.0 -1.0
  outer loop
    vertex -235.8100109531383 32.510631425903725 0.0
    vertex -239.19867600862764 38.05521126898402 0.0
    vertex -233.88063595313818 35.852406952756944 0.0
  endloop
endfacet
facet normal 0.0 0.0 -1.0
  outer loop
    vertex -235.8100109531383 32.510631425903725 0.0
    vertex -233.88063595313818 35.852406952756944 0.0
    vertex -232.04247971987846 29.61970303256983 0.0
  endloop
endfacet
facet normal 0.0 0.0 -1.0
  outer loop
    vertex -232.04247971987846 29.61970303256983 0.0
    vertex -233.88063595313818 35.852406952756944 0.0
    vertex -229.3139314279749 32.348251324473416 0.0
  endloop
endfacet
facet normal 0.0 0.0 -1.0
  outer loop
    vertex -232.04247971987846 29.61970303256983 0.0
    vertex -229.3139314279749 32.348251324473416 0.0
    vertex -229.15155132654456 25.85217179931004 0.0
  endloop
endfacet
facet normal 0.0 0.0 -1.0
  outer loop
    vertex -229.15155132654456 25.85217179931004 0.0
    vertex -229.3139314279749 32.348251324473416 0.0
    vertex -225.8097757996914 27.781546799310053 0.0
  endloop
endfacet
facet normal 0.0 0.0 -1.0
  outer loop
    vertex -229.15155132654456 25.85217179931004 0.0
    vertex -225.8097757996914 27.781546799310053 0.0
    vertex -227.33423776565724 21.46478875353127 0.0
  endloop
endfacet
facet normal 0.0 0.0 -1.0
  outer loop
    vertex -227.33423776565724 21.46478875353127 0.0
    vertex -225.8097757996914 27.781546799310053 0.0
    vertex -226.71438595313828 16.756546799310048 0.0
  endloop
endfacet
facet normal 0.0 0.0 -1.0
  outer loop
    vertex -264.00149610658514 5.731546799310052 0.0
    vertex -262.4770341406193 12.048304845088822 0.0
    vertex -260.4973404783016 1.1648422741466746 0.0
  endloop
endfacet
facet normal 0.0 0.0 -1.0
  outer loop
    vertex -262.4770341406193 12.048304845088822 0.0
    vertex -264.00149610658514 5.731546799310052 0.0
    vertex -263.09688595313827 16.756546799310048 0.0
  endloop
endfacet
facet normal 0.0 0.0 -1.0
  outer loop
    vertex -260.4973404783016 1.1648422741466746 0.0
    vertex -262.4770341406193 12.048304845088822 0.0
    vertex -260.65972057973187 7.660921799310055 0.0
  endloop
endfacet
facet normal 0.0 0.0 -1.0
  outer loop
    vertex -260.4973404783016 1.1648422741466746 0.0
    vertex -260.65972057973187 7.660921799310055 0.0
    vertex -257.768792186398 3.8933905660502743 0.0
  endloop
endfacet
facet normal 0.0 0.0 -1.0
  outer loop
    vertex -260.4973404783016 1.1648422741466746 0.0
    vertex -257.768792186398 3.8933905660502743 0.0
    vertex -255.93063595313834 -2.3393133541368223 0.0
  endloop
endfacet
facet normal 0.0 0.0 -1.0
  outer loop
    vertex -255.93063595313834 -2.3393133541368223 0.0
    vertex -257.768792186398 3.8933905660502743 0.0
    vertex -254.00126095313823 1.0024621727163843 0.0
  endloop
endfacet
facet normal 0.0 0.0 -1.0
  outer loop
    vertex -255.93063595313834 -2.3393133541368223 0.0
    vertex -254.00126095313823 1.0024621727163843 0.0
    vertex -250.61259589764887 -4.542117670363915 0.0
  endloop
endfacet
facet normal 0.0 0.0 -1.0
  outer loop
    vertex -250.61259589764887 -4.542117670363915 0.0
    vertex -254.00126095313823 1.0024621727163843 0.0
    vertex -249.61387790735947 -0.814851388170957 0.0
  endloop
endfacet
facet normal 0.0 0.0 -1.0
  outer loop
    vertex -250.61259589764887 -4.542117670363915 0.0
    vertex -249.61387790735947 -0.814851388170957 0.0
    vertex -244.90563595313824 -5.293453200689961 0.0
  endloop
endfacet
facet normal 0.0 0.0 -1.0
  outer loop
    vertex -244.90563595313824 -5.293453200689961 0.0
    vertex -249.61387790735947 -0.814851388170957 0.0
    vertex -244.90563595313824 -1.434703200689953 0.0
  endloop
endfacet
facet normal 0.0 0.0 -1.0
  outer loop
    vertex -244.90563595313824 -5.293453200689961 0.0
    vertex -244.90563595313824 -1.434703200689953 0.0
    vertex -240.19739399891705 -0.814851388170969 0.0
  endloop
endfacet
facet normal 0.0 0.0 -1.0
  outer loop
    vertex -244.90563595313824 -5.293453200689961 0.0
    vertex -240.19739399891705 -0.814851388170969 0.0
    vertex -239.19867600862764 -4.542117670363915 0.0
  endloop
endfacet
facet normal 0.0 0.0 -1.0
  outer loop
    vertex -239.19867600862764 -4.542117670363915 0.0
    vertex -240.19739399891705 -0.814851388170969 0.0
    vertex -235.8100109531383 1.0024621727163723 0.0
  endloop
endfacet
facet normal 0.0 0.0 -1.0
  outer loop
    vertex -239.19867600862764 -4.542117670363915 0.0
    vertex -235.8100109531383 1.0024621727163723 0.0
    vertex -233.88063595313824 -2.3393133541368414 0.0
  endloop
endfacet
facet normal 0.0 0.0 -1.0
  outer loop
    vertex -233.88063595313824 -2.3393133541368414 0.0
    vertex -235.8100109531383 1.0024621727163723 0.0
    vertex -232.04247971987846 3.8933905660502632 0.0
  endloop
endfacet
facet normal 0.0 0.0 -1.0
  outer loop
    vertex -233.88063595313824 -2.3393133541368414 0.0
    vertex -232.04247971987846 3.8933905660502632 0.0
    vertex -229.3139314279749 1.1648422741466626 0.0
  endloop
endfacet
facet normal 0.0 0.0 -1.0
  outer loop
    vertex -229.3139314279749 1.1648422741466626 0.0
    vertex -232.04247971987846 3.8933905660502632 0.0
    vertex -229.15155132654462 7.660921799310042 0.0
  endloop
endfacet
facet normal 0.0 0.0 -1.0
  outer loop
    vertex -229.3139314279749 1.1648422741466626 0.0
    vertex -229.15155132654462 7.660921799310042 0.0
    vertex -225.8097757996914 5.731546799310035 0.0
  endloop
endfacet
facet normal 0.0 0.0 -1.0
  outer loop
    vertex -225.8097757996914 5.731546799310035 0.0
    vertex -229.15155132654462 7.660921799310042 0.0
    vertex -227.33423776565724 12.048304845088806 0.0
  endloop
endfacet
facet normal 0.0 0.0 -1.0
  outer loop
    vertex -225.8097757996914 5.731546799310035 0.0
    vertex -227.33423776565724 12.048304845088806 0.0
    vertex -226.71438595313828 16.756546799310048 0.0
  endloop
endfacet
facet normal 0.0 0.0 -1.0
  outer loop
    vertex -225.8097757996914 5.731546799310035 0.0
    vertex -226.71438595313828 16.756546799310048 0.0
    vertex -225.8097757996914 27.781546799310053 0.0
  endloop
endfacet
facet normal 0.0 0.0 -1.0
  outer loop
    vertex -225.8097757996914 5.731546799310035 0.0
    vertex -225.8097757996914 27.781546799310053 0.0
    vertex -223.6069714834643 22.46350674382064 0.0
  endloop
endfacet
facet normal 0.0 0.0 -1.0
  outer loop
    vertex -225.8097757996914 5.731546799310035 0.0
    vertex -223.6069714834643 22.46350674382064 0.0
    vertex -223.60697148346435 11.049586854799452 0.0
  endloop
endfacet
facet normal 0.0 0.0 -1.0
  outer loop
    vertex -223.60697148346435 11.049586854799452 0.0
    vertex -223.6069714834643 22.46350674382064 0.0
    vertex -222.85563595313826 16.75654679931005 0.0
  endloop
endfacet
facet normal -0.2929283817485924 -0.38175169952008076 0.8766177063462047
  outer loop
    vertex -255.93063595313834 -2.3393133541368223 1.05
    vertex -257.768792186398 3.8933905660502743 3.15
    vertex -260.4973404783016 1.1648422741466746 1.05
  endloop
endfacet
facet normal -0.2929283817485924 -0.38175169952008076 0.8766177063462047
  outer loop
    vertex -257.768792186398 3.8933905660502743 3.15
    vertex -255.93063595313834 -2.3393133541368223 1.05
    vertex -254.00126095313823 1.0024621727163843 3.15
  endloop
endfacet
facet normal -0.18414247884797708 -0.4445592698437873 0.8766177063462048
  outer loop
    vertex -250.61259589764887 -4.542117670363915 1.05
    vertex -254.00126095313823 1.0024621727163843 3.15
    vertex -255.93063595313834 -2.3393133541368223 1.05
  endloop
endfacet
facet normal -0.18414247884797708 -0.4445592698437873 0.8766177063462048
  outer loop
    vertex -254.00126095313823 1.0024621727163843 3.15
    vertex -250.61259589764887 -4.542117670363915 1.05
    vertex -249.61387790735947 -0.814851388170957 3.15
  endloop
endfacet
facet normal -0.06280757032370737 -0.4770708605965717 0.8766177063462036
  outer loop
    vertex -244.90563595313824 -5.293453200689961 1.05
    vertex -249.61387790735947 -0.814851388170957 3.15
    vertex -250.61259589764887 -4.542117670363915 1.05
  endloop
endfacet
facet normal -0.06280757032370737 -0.4770708605965717 0.8766177063462036
  outer loop
    vertex -249.61387790735947 -0.814851388170957 3.15
    vertex -244.90563595313824 -5.293453200689961 1.05
    vertex -244.90563595313824 -1.434703200689953 3.15
  endloop
endfacet
facet normal 0.06280757032370728 -0.47707086059657244 0.8766177063462033
  outer loop
    vertex -239.19867600862764 -4.542117670363915 1.05
    vertex -244.90563595313824 -1.434703200689953 3.15
    vertex -244.90563595313824 -5.293453200689961 1.05
  endloop
endfacet
facet normal 0.06280757032370728 -0.47707086059657244 0.8766177063462033
  outer loop
    vertex -244.90563595313824 -1.434703200689953 3.15
    vertex -239.19867600862764 -4.542117670363915 1.05
    vertex -240.19739399891705 -0.814851388170969 3.15
  endloop
endfacet
facet normal 0.1841424788479781 -0.44455926984379 0.8766177063462033
  outer loop
    vertex -239.19867600862764 -4.542117670363915 1.05
    vertex -235.8100109531383 1.0024621727163723 3.15
    vertex -240.19739399891705 -0.814851388170969 3.15
  endloop
endfacet
facet normal 0.1841424788479781 -0.44455926984379 0.8766177063462033
  outer loop
    vertex -235.8100109531383 1.0024621727163723 3.15
    vertex -239.19867600862764 -4.542117670363915 1.05
    vertex -233.88063595313824 -2.3393133541368414 1.05
  endloop
endfacet
facet normal 0.29292838174859387 -0.38175169952008436 0.8766177063462026
  outer loop
    vertex -233.88063595313824 -2.3393133541368414 1.05
    vertex -232.04247971987846 3.8933905660502632 3.15
    vertex -235.8100109531383 1.0024621727163723 3.15
  endloop
endfacet
facet normal 0.29292838174859387 -0.38175169952008436 0.8766177063462026
  outer loop
    vertex -232.04247971987846 3.8933905660502632 3.15
    vertex -233.88063595313824 -2.3393133541368414 1.05
    vertex -229.3139314279749 1.1648422741466626 1.05
  endloop
endfacet
facet normal 0.38175169952008475 -0.29292838174859365 0.8766177063462026
  outer loop
    vertex -229.3139314279749 1.1648422741466626 1.05
    vertex -229.15155132654462 7.660921799310042 3.15
    vertex -232.04247971987846 3.8933905660502632 3.15
  endloop
endfacet
facet normal 0.38175169952008475 -0.29292838174859365 0.8766177063462026
  outer loop
    vertex -229.15155132654462 7.660921799310042 3.15
    vertex -229.3139314279749 1.1648422741466626 1.05
    vertex -225.8097757996914 5.731546799310035 1.05
  endloop
endfacet
facet normal 0.4445592698437915 -0.18414247884797977 0.8766177063462021
  outer loop
    vertex -225.8097757996914 5.731546799310035 1.05
    vertex -227.33423776565724 12.048304845088806 3.15
    vertex -229.15155132654462 7.660921799310042 3.15
  endloop
endfacet
facet normal 0.4445592698437915 -0.18414247884797977 0.8766177063462021
  outer loop
    vertex -227.33423776565724 12.048304845088806 3.15
    vertex -225.8097757996914 5.731546799310035 1.05
    vertex -223.60697148346435 11.049586854799452 1.05
  endloop
endfacet
facet normal 0.47707086059657566 -0.06280757032370804 0.8766177063462014
  outer loop
    vertex -223.60697148346435 11.049586854799452 1.05
    vertex -226.71438595313828 16.756546799310048 3.15
    vertex -227.33423776565724 12.048304845088806 3.15
  endloop
endfacet
facet normal 0.47707086059657566 -0.06280757032370804 0.8766177063462014
  outer loop
    vertex -226.71438595313828 16.756546799310048 3.15
    vertex -223.60697148346435 11.049586854799452 1.05
    vertex -222.85563595313826 16.75654679931005 1.05
  endloop
endfacet
facet normal 0.4770708605965736 0.06280757032370567 0.8766177063462028
  outer loop
    vertex -226.71438595313828 16.756546799310048 3.15
    vertex -223.6069714834643 22.46350674382064 1.05
    vertex -227.33423776565724 21.46478875353127 3.15
  endloop
endfacet
facet normal 0.4770708605965736 0.06280757032370567 0.8766177063462028
  outer loop
    vertex -223.6069714834643 22.46350674382064 1.05
    vertex -226.71438595313828 16.756546799310048 3.15
    vertex -222.85563595313826 16.75654679931005 1.05
  endloop
endfacet
facet normal 0.44455926984379124 0.18414247884797985 0.8766177063462023
  outer loop
    vertex -227.33423776565724 21.46478875353127 3.15
    vertex -225.8097757996914 27.781546799310053 1.05
    vertex -229.15155132654456 25.85217179931004 3.15
  endloop
endfacet
facet normal 0.44455926984379124 0.18414247884797985 0.8766177063462023
  outer loop
    vertex -225.8097757996914 27.781546799310053 1.05
    vertex -227.33423776565724 21.46478875353127 3.15
    vertex -223.6069714834643 22.46350674382064 1.05
  endloop
endfacet
facet normal 0.3817516995200855 0.29292838174859614 0.8766177063462014
  outer loop
    vertex -229.15155132654456 25.85217179931004 3.15
    vertex -229.3139314279749 32.348251324473416 1.05
    vertex -232.04247971987846 29.61970303256983 3.15
  endloop
endfacet
facet normal 0.3817516995200855 0.29292838174859614 0.8766177063462014
  outer loop
    vertex -229.3139314279749 32.348251324473416 1.05
    vertex -229.15155132654456 25.85217179931004 3.15
    vertex -225.8097757996914 27.781546799310053 1.05
  endloop
endfacet
facet normal 0.2929283817485948 0.3817516995200825 0.8766177063462032
  outer loop
    vertex -232.04247971987846 29.61970303256983 3.15
    vertex -233.88063595313818 35.852406952756944 1.05
    vertex -235.8100109531383 32.510631425903725 3.15
  endloop
endfacet
facet normal 0.2929283817485948 0.3817516995200825 0.8766177063462032
  outer loop
    vertex -233.88063595313818 35.852406952756944 1.05
    vertex -232.04247971987846 29.61970303256983 3.15
    vertex -229.3139314279749 32.348251324473416 1.05
  endloop
endfacet
facet normal 0.18414247884797713 0.4445592698437893 0.8766177063462038
  outer loop
    vertex -235.8100109531383 32.510631425903725 3.15
    vertex -239.19867600862764 38.05521126898402 1.05
    vertex -240.19739399891705 34.32794498679107 3.15
  endloop
endfacet
facet normal 0.18414247884797713 0.4445592698437893 0.8766177063462038
  outer loop
    vertex -239.19867600862764 38.05521126898402 1.05
    vertex -235.8100109531383 32.510631425903725 3.15
    vertex -233.88063595313818 35.852406952756944 1.05
  endloop
endfacet
facet normal 0.0628075703237072 0.47707086059657255 0.8766177063462033
  outer loop
    vertex -240.19739399891705 34.32794498679107 3.15
    vertex -244.90563595313824 38.806546799310055 1.05
    vertex -244.90563595313824 34.94779679931005 3.15
  endloop
endfacet
facet normal 0.0628075703237072 0.47707086059657255 0.8766177063462033
  outer loop
    vertex -244.90563595313824 38.806546799310055 1.05
    vertex -240.19739399891705 34.32794498679107 3.15
    vertex -239.19867600862764 38.05521126898402 1.05
  endloop
endfacet
facet normal -0.0628075703237069 0.47707086059657233 0.8766177063462034
  outer loop
    vertex -249.61387790735947 34.32794498679107 3.15
    vertex -244.90563595313824 38.806546799310055 1.05
    vertex -250.61259589764887 38.05521126898402 1.05
  endloop
endfacet
facet normal -0.0628075703237069 0.47707086059657233 0.8766177063462034
  outer loop
    vertex -244.90563595313824 38.806546799310055 1.05
    vertex -249.61387790735947 34.32794498679107 3.15
    vertex -244.90563595313824 34.94779679931005 3.15
  endloop
endfacet
facet normal -0.18414247884797763 0.4445592698437882 0.8766177063462043
  outer loop
    vertex -254.00126095313823 32.510631425903725 3.15
    vertex -250.61259589764887 38.05521126898402 1.05
    vertex -255.93063595313828 35.852406952756944 1.05
  endloop
endfacet
facet normal -0.18414247884797763 0.4445592698437882 0.8766177063462043
  outer loop
    vertex -250.61259589764887 38.05521126898402 1.05
    vertex -254.00126095313823 32.510631425903725 3.15
    vertex -249.61387790735947 34.32794498679107 3.15
  endloop
endfacet
facet normal -0.2929283817485948 0.3817516995200826 0.8766177063462032
  outer loop
    vertex -257.768792186398 29.61970303256983 3.15
    vertex -255.93063595313828 35.852406952756944 1.05
    vertex -260.49734047830157 32.348251324473416 1.05
  endloop
endfacet
facet normal -0.2929283817485948 0.3817516995200826 0.8766177063462032
  outer loop
    vertex -255.93063595313828 35.852406952756944 1.05
    vertex -257.768792186398 29.61970303256983 3.15
    vertex -254.00126095313823 32.510631425903725 3.15
  endloop
endfacet
facet normal -0.3817516995200846 0.2929283817485943 0.8766177063462025
  outer loop
    vertex -260.65972057973187 25.852171799310057 3.15
    vertex -260.49734047830157 32.348251324473416 1.05
    vertex -264.00149610658514 27.781546799310068 1.05
  endloop
endfacet
facet normal -0.3817516995200846 0.2929283817485943 0.8766177063462025
  outer loop
    vertex -260.49734047830157 32.348251324473416 1.05
    vertex -260.65972057973187 25.852171799310057 3.15
    vertex -257.768792186398 29.61970303256983 3.15
  endloop
endfacet
facet normal -0.4445592698437865 0.1841424788479818 0.8766177063462042
  outer loop
    vertex -262.4770341406193 21.464788753531288 3.15
    vertex -264.00149610658514 27.781546799310068 1.05
    vertex -266.20430042281225 22.46350674382064 1.05
  endloop
endfacet
facet normal -0.4445592698437865 0.1841424788479818 0.8766177063462042
  outer loop
    vertex -264.00149610658514 27.781546799310068 1.05
    vertex -262.4770341406193 21.464788753531288 3.15
    vertex -260.65972057973187 25.852171799310057 3.15
  endloop
endfacet
facet normal -0.47707086059657183 0.0628075703237031 0.8766177063462038
  outer loop
    vertex -263.09688595313827 16.756546799310048 3.15
    vertex -266.20430042281225 22.46350674382064 1.05
    vertex -266.9556359531382 16.75654679931005 1.05
  endloop
endfacet
facet normal -0.47707086059657183 0.0628075703237031 0.8766177063462038
  outer loop
    vertex -266.20430042281225 22.46350674382064 1.05
    vertex -263.09688595313827 16.756546799310048 3.15
    vertex -262.4770341406193 21.464788753531288 3.15
  endloop
endfacet
facet normal -0.47707086059657183 -0.0628075703237033 0.8766177063462038
  outer loop
    vertex -266.20430042281225 11.049586854799474 1.05
    vertex -263.09688595313827 16.756546799310048 3.15
    vertex -266.9556359531382 16.75654679931005 1.05
  endloop
endfacet
facet normal -0.47707086059657183 -0.0628075703237033 0.8766177063462038
  outer loop
    vertex -263.09688595313827 16.756546799310048 3.15
    vertex -266.20430042281225 11.049586854799474 1.05
    vertex -262.4770341406193 12.048304845088822 3.15
  endloop
endfacet
facet normal -0.444559269843789 -0.18414247884798116 0.8766177063462032
  outer loop
    vertex -264.00149610658514 5.731546799310052 1.05
    vertex -262.4770341406193 12.048304845088822 3.15
    vertex -266.20430042281225 11.049586854799474 1.05
  endloop
endfacet
facet normal -0.444559269843789 -0.18414247884798116 0.8766177063462032
  outer loop
    vertex -262.4770341406193 12.048304845088822 3.15
    vertex -264.00149610658514 5.731546799310052 1.05
    vertex -260.65972057973187 7.660921799310055 3.15
  endloop
endfacet
facet normal -0.3817516995200853 -0.2929283817485933 0.8766177063462025
  outer loop
    vertex -260.4973404783016 1.1648422741466746 1.05
    vertex -260.65972057973187 7.660921799310055 3.15
    vertex -264.00149610658514 5.731546799310052 1.05
  endloop
endfacet
facet normal -0.3817516995200853 -0.2929283817485933 0.8766177063462025
  outer loop
    vertex -260.65972057973187 7.660921799310055 3.15
    vertex -260.4973404783016 1.1648422741466746 1.05
    vertex -257.768792186398 3.8933905660502743 3.15
  endloop
endfacet
endsolid Albatross inches
